solid OpenSCAD_Model
  facet normal 1 -0 0
    outer loop
      vertex 285 29 45
      vertex 285 260 0
      vertex 285 260 45
    endloop
  endfacet
  facet normal 1 0 0
    outer loop
      vertex 285 260 0
      vertex 285 29 45
      vertex 285 29 0
    endloop
  endfacet
  facet normal 0 0 1
    outer loop
      vertex 8.5 32 45
      vertex 5.5 29 45
      vertex 8.5 3 45
    endloop
  endfacet
  facet normal -0 0 1
    outer loop
      vertex 3 32 45
      vertex 5.5 29 45
      vertex 8.5 32 45
    endloop
  endfacet
  facet normal 0 0 1
    outer loop
      vertex 3 32 45
      vertex 0 29 45
      vertex 5.5 29 45
    endloop
  endfacet
  facet normal 0 0 1
    outer loop
      vertex 3 197 45
      vertex 0 29 45
      vertex 3 32 45
    endloop
  endfacet
  facet normal -0 0 1
    outer loop
      vertex 3 200 45
      vertex 67 197 45
      vertex 67 200 45
    endloop
  endfacet
  facet normal 0 0 1
    outer loop
      vertex 67 197 45
      vertex 3 200 45
      vertex 3 197 45
    endloop
  endfacet
  facet normal 0 0 1
    outer loop
      vertex 282 93 45
      vertex 215.923 90 45
      vertex 282 90 45
    endloop
  endfacet
  facet normal 0 -0 1
    outer loop
      vertex 215.923 90 45
      vertex 282 93 45
      vertex 215.079 93 45
    endloop
  endfacet
  facet normal -0 0 1
    outer loop
      vertex 178 183 45
      vertex 282 180 45
      vertex 282 183 45
    endloop
  endfacet
  facet normal 0 0 1
    outer loop
      vertex 282 180 45
      vertex 178 183 45
      vertex 178 180 45
    endloop
  endfacet
  facet normal 0 0 1
    outer loop
      vertex 282 183 45
      vertex 285 260 45
      vertex 282 257 45
    endloop
  endfacet
  facet normal 0 0 1
    outer loop
      vertex 285 260 45
      vertex 178 257 45
      vertex 282 257 45
    endloop
  endfacet
  facet normal 0 0 1
    outer loop
      vertex 175 183 45
      vertex 178 183 45
      vertex 178 257 45
    endloop
  endfacet
  facet normal 0 0 1
    outer loop
      vertex 178 183 45
      vertex 175 183 45
      vertex 178 180 45
    endloop
  endfacet
  facet normal 0 0 1
    outer loop
      vertex 175 180 45
      vertex 178 180 45
      vertex 175 183 45
    endloop
  endfacet
  facet normal 0 0 1
    outer loop
      vertex 175 183 45
      vertex 178 257 45
      vertex 175 257 45
    endloop
  endfacet
  facet normal 0 0 1
    outer loop
      vertex 285 260 45
      vertex 175 257 45
      vertex 178 257 45
    endloop
  endfacet
  facet normal -0 0 1
    outer loop
      vertex 0 260 45
      vertex 175 257 45
      vertex 285 260 45
    endloop
  endfacet
  facet normal -0 0 1
    outer loop
      vertex 67 200 45
      vertex 70 183 45
      vertex 70 257 45
    endloop
  endfacet
  facet normal -0 0 1
    outer loop
      vertex 67 197 45
      vertex 70 183 45
      vertex 67 200 45
    endloop
  endfacet
  facet normal 0 0 1
    outer loop
      vertex 70 180 45
      vertex 67 197 45
      vertex 70 93.2435 45
    endloop
  endfacet
  facet normal 0 0 1
    outer loop
      vertex 70 93.2435 45
      vertex 67 197 45
      vertex 70 84.5144 45
    endloop
  endfacet
  facet normal 0 0 1
    outer loop
      vertex 67 200 45
      vertex 70 257 45
      vertex 67 257 45
    endloop
  endfacet
  facet normal 0 0 1
    outer loop
      vertex 175 257 45
      vertex 0 260 45
      vertex 70 257 45
    endloop
  endfacet
  facet normal 0 0 1
    outer loop
      vertex 70 257 45
      vertex 0 260 45
      vertex 67 257 45
    endloop
  endfacet
  facet normal 0 0 1
    outer loop
      vertex 0 260 45
      vertex 3 200 45
      vertex 3 257 45
    endloop
  endfacet
  facet normal 0 0 1
    outer loop
      vertex 3 200 45
      vertex 0 260 45
      vertex 3 197 45
    endloop
  endfacet
  facet normal 0 0 1
    outer loop
      vertex 0 29 45
      vertex 3 197 45
      vertex 0 260 45
    endloop
  endfacet
  facet normal 0 0 1
    outer loop
      vertex 67 257 45
      vertex 0 260 45
      vertex 3 257 45
    endloop
  endfacet
  facet normal 0 0 1
    outer loop
      vertex 282 180 45
      vertex 285 260 45
      vertex 282 183 45
    endloop
  endfacet
  facet normal 0 0 1
    outer loop
      vertex 285 260 45
      vertex 282 180 45
      vertex 285 29 45
    endloop
  endfacet
  facet normal -0 0 1
    outer loop
      vertex 282 93 45
      vertex 285 29 45
      vertex 282 180 45
    endloop
  endfacet
  facet normal -0 0 1
    outer loop
      vertex 282 90 45
      vertex 285 29 45
      vertex 282 93 45
    endloop
  endfacet
  facet normal -0 0 1
    outer loop
      vertex 282 32 45
      vertex 285 29 45
      vertex 282 90 45
    endloop
  endfacet
  facet normal 0 0 1
    outer loop
      vertex 282 32 45
      vertex 282 29 45
      vertex 285 29 45
    endloop
  endfacet
  facet normal 0 0 1
    outer loop
      vertex 282 32 45
      vertex 279.5 29 45
      vertex 282 29 45
    endloop
  endfacet
  facet normal -0 0 1
    outer loop
      vertex 276.5 32 45
      vertex 279.5 29 45
      vertex 282 32 45
    endloop
  endfacet
  facet normal 0 0 1
    outer loop
      vertex 276.5 3 45
      vertex 279.5 29 45
      vertex 276.5 32 45
    endloop
  endfacet
  facet normal 0 0 1
    outer loop
      vertex 279.5 29 45
      vertex 276.5 3 45
      vertex 279.5 0 45
    endloop
  endfacet
  facet normal -0 0 1
    outer loop
      vertex 162.521 3 45
      vertex 279.5 0 45
      vertex 276.5 3 45
    endloop
  endfacet
  facet normal -0 0 1
    outer loop
      vertex 155.346 3 45
      vertex 279.5 0 45
      vertex 162.521 3 45
    endloop
  endfacet
  facet normal 0 0 1
    outer loop
      vertex 5.5 0 45
      vertex 155.346 3 45
      vertex 70 3 45
    endloop
  endfacet
  facet normal 0 0 1
    outer loop
      vertex 70 183 45
      vertex 67 197 45
      vertex 70 180 45
    endloop
  endfacet
  facet normal 0 0 1
    outer loop
      vertex 67 3 45
      vertex 70 84.5144 45
      vertex 67 197 45
    endloop
  endfacet
  facet normal 0 0 1
    outer loop
      vertex 70 84.5144 45
      vertex 67 3 45
      vertex 70 3 45
    endloop
  endfacet
  facet normal 0 0 1
    outer loop
      vertex 5.5 0 45
      vertex 70 3 45
      vertex 67 3 45
    endloop
  endfacet
  facet normal 0 0 1
    outer loop
      vertex 5.5 0 45
      vertex 67 3 45
      vertex 8.5 3 45
    endloop
  endfacet
  facet normal 0 0 1
    outer loop
      vertex 155.346 3 45
      vertex 5.5 0 45
      vertex 279.5 0 45
    endloop
  endfacet
  facet normal 0 0 1
    outer loop
      vertex 5.5 0 45
      vertex 8.5 3 45
      vertex 5.5 29 45
    endloop
  endfacet
  facet normal 0 0 1
    outer loop
      vertex 215.923 90 45
      vertex 216 75 45
      vertex 217.5 75 45
    endloop
  endfacet
  facet normal -0 0 1
    outer loop
      vertex 214.394 90.2815 45
      vertex 215.923 90 45
      vertex 215.079 93 45
    endloop
  endfacet
  facet normal 0 0 1
    outer loop
      vertex 215.923 90 45
      vertex 214.394 90.2815 45
      vertex 216 75 45
    endloop
  endfacet
  facet normal -0 0 1
    outer loop
      vertex 209.646 104.895 45
      vertex 215.079 93 45
      vertex 211.016 105.505 45
    endloop
  endfacet
  facet normal 0 0 1
    outer loop
      vertex 215.079 93 45
      vertex 209.646 104.895 45
      vertex 214.394 90.2815 45
    endloop
  endfacet
  facet normal 0 0 1
    outer loop
      vertex 203.176 119.084 45
      vertex 209.646 104.895 45
      vertex 211.016 105.505 45
    endloop
  endfacet
  facet normal 0 0 1
    outer loop
      vertex 203.176 119.084 45
      vertex 201.963 118.202 45
      vertex 209.646 104.895 45
    endloop
  endfacet
  facet normal 0 0 1
    outer loop
      vertex 192.685 130.736 45
      vertex 201.963 118.202 45
      vertex 203.176 119.084 45
    endloop
  endfacet
  facet normal 0 0 1
    outer loop
      vertex 192.685 130.736 45
      vertex 191.681 129.621 45
      vertex 201.963 118.202 45
    endloop
  endfacet
  facet normal 0 0 1
    outer loop
      vertex 180 139.952 45
      vertex 191.681 129.621 45
      vertex 192.685 130.736 45
    endloop
  endfacet
  facet normal 0 0 1
    outer loop
      vertex 180 139.952 45
      vertex 179.25 138.653 45
      vertex 191.681 129.621 45
    endloop
  endfacet
  facet normal 0 0 1
    outer loop
      vertex 178 140.842 45
      vertex 179.25 138.653 45
      vertex 180 139.952 45
    endloop
  endfacet
  facet normal 0 0 1
    outer loop
      vertex 179.25 138.653 45
      vertex 178 140.842 45
      vertex 176.224 140 45
    endloop
  endfacet
  facet normal -0 0 1
    outer loop
      vertex 216 75 45
      vertex 215.861 59.4066 45
      vertex 217.5 75 45
    endloop
  endfacet
  facet normal -0 0 1
    outer loop
      vertex 214.394 59.7185 45
      vertex 215.861 59.4066 45
      vertex 216 75 45
    endloop
  endfacet
  facet normal 0 0 1
    outer loop
      vertex 214.394 59.7185 45
      vertex 211.016 44.4948 45
      vertex 215.861 59.4066 45
    endloop
  endfacet
  facet normal -0 0 1
    outer loop
      vertex 209.646 45.1049 45
      vertex 211.016 44.4948 45
      vertex 214.394 59.7185 45
    endloop
  endfacet
  facet normal 0 0 1
    outer loop
      vertex 209.646 45.1049 45
      vertex 203.176 30.9161 45
      vertex 211.016 44.4948 45
    endloop
  endfacet
  facet normal -0 0 1
    outer loop
      vertex 201.963 31.7978 45
      vertex 203.176 30.9161 45
      vertex 209.646 45.1049 45
    endloop
  endfacet
  facet normal 0 0 1
    outer loop
      vertex 201.963 31.7978 45
      vertex 192.685 19.2641 45
      vertex 203.176 30.9161 45
    endloop
  endfacet
  facet normal -0 0 1
    outer loop
      vertex 191.681 20.3789 45
      vertex 192.685 19.2641 45
      vertex 201.963 31.7978 45
    endloop
  endfacet
  facet normal 0 0 1
    outer loop
      vertex 191.681 20.3789 45
      vertex 180 10.0481 45
      vertex 192.685 19.2641 45
    endloop
  endfacet
  facet normal -0 0 1
    outer loop
      vertex 179.25 11.3471 45
      vertex 180 10.0481 45
      vertex 191.681 20.3789 45
    endloop
  endfacet
  facet normal 0 0 1
    outer loop
      vertex 179.25 11.3471 45
      vertex 165.676 3.67076 45
      vertex 180 10.0481 45
    endloop
  endfacet
  facet normal -0 0 1
    outer loop
      vertex 165.213 5.09735 45
      vertex 165.676 3.67076 45
      vertex 179.25 11.3471 45
    endloop
  endfacet
  facet normal 0 0 1
    outer loop
      vertex 165.213 5.09735 45
      vertex 162.521 3 45
      vertex 165.676 3.67076 45
    endloop
  endfacet
  facet normal 0 -0 1
    outer loop
      vertex 162.521 3 45
      vertex 165.213 5.09735 45
      vertex 155.346 3 45
    endloop
  endfacet
  facet normal -0 0 1
    outer loop
      vertex 165.213 144.903 45
      vertex 175 142.178 45
      vertex 165.676 146.329 45
    endloop
  endfacet
  facet normal 0 0 1
    outer loop
      vertex 175 142.178 45
      vertex 165.213 144.903 45
      vertex 175 140.545 45
    endloop
  endfacet
  facet normal 0 0 1
    outer loop
      vertex 150.34 149.589 45
      vertex 165.213 144.903 45
      vertex 165.676 146.329 45
    endloop
  endfacet
  facet normal 0 0 1
    outer loop
      vertex 150.34 149.589 45
      vertex 150.183 148.097 45
      vertex 165.213 144.903 45
    endloop
  endfacet
  facet normal 0 0 1
    outer loop
      vertex 150.34 149.589 45
      vertex 134.817 148.097 45
      vertex 150.183 148.097 45
    endloop
  endfacet
  facet normal -0 0 1
    outer loop
      vertex 134.66 149.589 45
      vertex 134.817 148.097 45
      vertex 150.34 149.589 45
    endloop
  endfacet
  facet normal 0 0 1
    outer loop
      vertex 134.66 149.589 45
      vertex 119.787 144.903 45
      vertex 134.817 148.097 45
    endloop
  endfacet
  facet normal -0 0 1
    outer loop
      vertex 119.324 146.329 45
      vertex 119.787 144.903 45
      vertex 134.66 149.589 45
    endloop
  endfacet
  facet normal 0 0 1
    outer loop
      vertex 119.324 146.329 45
      vertex 105.75 138.653 45
      vertex 119.787 144.903 45
    endloop
  endfacet
  facet normal -0 0 1
    outer loop
      vertex 105 139.952 45
      vertex 105.75 138.653 45
      vertex 119.324 146.329 45
    endloop
  endfacet
  facet normal 0 0 1
    outer loop
      vertex 105 139.952 45
      vertex 93.3189 129.621 45
      vertex 105.75 138.653 45
    endloop
  endfacet
  facet normal -0 0 1
    outer loop
      vertex 92.3152 130.736 45
      vertex 93.3189 129.621 45
      vertex 105 139.952 45
    endloop
  endfacet
  facet normal 0 0 1
    outer loop
      vertex 92.3152 130.736 45
      vertex 83.0373 118.202 45
      vertex 93.3189 129.621 45
    endloop
  endfacet
  facet normal -0 0 1
    outer loop
      vertex 81.8237 119.084 45
      vertex 83.0373 118.202 45
      vertex 92.3152 130.736 45
    endloop
  endfacet
  facet normal 0 0 1
    outer loop
      vertex 81.8237 119.084 45
      vertex 75.3544 104.895 45
      vertex 83.0373 118.202 45
    endloop
  endfacet
  facet normal -0 0 1
    outer loop
      vertex 73.9841 105.505 45
      vertex 75.3544 104.895 45
      vertex 81.8237 119.084 45
    endloop
  endfacet
  facet normal 0 0 1
    outer loop
      vertex 70 93.2435 45
      vertex 75.3544 104.895 45
      vertex 73.9841 105.505 45
    endloop
  endfacet
  facet normal 0 0 1
    outer loop
      vertex 75.3544 104.895 45
      vertex 70 93.2435 45
      vertex 70.6062 90.2815 45
    endloop
  endfacet
  facet normal 0 0 1
    outer loop
      vertex 70.6062 90.2815 45
      vertex 70 93.2435 45
      vertex 70 84.5144 45
    endloop
  endfacet
  facet normal -0 0 1
    outer loop
      vertex 70 183 45
      vertex 175 180 45
      vertex 175 183 45
    endloop
  endfacet
  facet normal 0 0 1
    outer loop
      vertex 175 180 45
      vertex 70 183 45
      vertex 70 180 45
    endloop
  endfacet
  facet normal 0 0 1
    outer loop
      vertex 175 142.178 45
      vertex 178 180 45
      vertex 175 180 45
    endloop
  endfacet
  facet normal 0 0 1
    outer loop
      vertex 178 180 45
      vertex 175 142.178 45
      vertex 178 140.842 45
    endloop
  endfacet
  facet normal 0 0 1
    outer loop
      vertex 178 140.842 45
      vertex 175 142.178 45
      vertex 176.224 140 45
    endloop
  endfacet
  facet normal -0 0 1
    outer loop
      vertex 175 140.545 45
      vertex 176.224 140 45
      vertex 175 142.178 45
    endloop
  endfacet
  facet normal 0 0 1
    outer loop
      vertex 176.224 140 45
      vertex 175 140.545 45
      vertex 175 140 45
    endloop
  endfacet
  facet normal 0 0 -1
    outer loop
      vertex 279.5 0 0
      vertex 5.5 0 0
      vertex 279.5 29 0
    endloop
  endfacet
  facet normal 0 0 -1
    outer loop
      vertex 282 29 0
      vertex 285 260 0
      vertex 285 29 0
    endloop
  endfacet
  facet normal 0 0 -1
    outer loop
      vertex 279.5 29 0
      vertex 285 260 0
      vertex 282 29 0
    endloop
  endfacet
  facet normal 0 0 -1
    outer loop
      vertex 5.5 29 0
      vertex 279.5 29 0
      vertex 5.5 0 0
    endloop
  endfacet
  facet normal 0 0 -1
    outer loop
      vertex 279.5 29 0
      vertex 5.5 29 0
      vertex 285 260 0
    endloop
  endfacet
  facet normal 0 0 -1
    outer loop
      vertex 0 260 0
      vertex 5.5 29 0
      vertex 0 29 0
    endloop
  endfacet
  facet normal 0 0 -1
    outer loop
      vertex 5.5 29 0
      vertex 0 260 0
      vertex 285 260 0
    endloop
  endfacet
  facet normal -1 0 0
    outer loop
      vertex 0 29 0
      vertex 0 260 45
      vertex 0 260 0
    endloop
  endfacet
  facet normal -1 -0 0
    outer loop
      vertex 0 260 45
      vertex 0 29 0
      vertex 0 29 45
    endloop
  endfacet
  facet normal 0 1 -0
    outer loop
      vertex 285 260 0
      vertex 0 260 45
      vertex 285 260 45
    endloop
  endfacet
  facet normal 0 1 0
    outer loop
      vertex 0 260 45
      vertex 285 260 0
      vertex 0 260 0
    endloop
  endfacet
  facet normal 0 -1 0
    outer loop
      vertex 5.5 0 0
      vertex 279.5 0 45
      vertex 5.5 0 45
    endloop
  endfacet
  facet normal 0 -1 -0
    outer loop
      vertex 279.5 0 45
      vertex 5.5 0 0
      vertex 279.5 0 0
    endloop
  endfacet
  facet normal -1 0 0
    outer loop
      vertex 282 183 3
      vertex 282 257 45
      vertex 282 257 3
    endloop
  endfacet
  facet normal -1 -0 0
    outer loop
      vertex 282 257 45
      vertex 282 183 3
      vertex 282 183 45
    endloop
  endfacet
  facet normal -1 0 0
    outer loop
      vertex 282 32 3
      vertex 282 90 45
      vertex 282 90 3
    endloop
  endfacet
  facet normal -1 -0 0
    outer loop
      vertex 282 90 45
      vertex 282 32 3
      vertex 282 32 45
    endloop
  endfacet
  facet normal -1 0 0
    outer loop
      vertex 282 93 3
      vertex 282 180 45
      vertex 282 180 3
    endloop
  endfacet
  facet normal -1 -0 0
    outer loop
      vertex 282 180 45
      vertex 282 93 3
      vertex 282 93 45
    endloop
  endfacet
  facet normal -0 0 1
    outer loop
      vertex 178 257 3
      vertex 282 183 3
      vertex 282 257 3
    endloop
  endfacet
  facet normal 0 0 1
    outer loop
      vertex 282 183 3
      vertex 178 257 3
      vertex 178 183 3
    endloop
  endfacet
  facet normal -0 0 1
    outer loop
      vertex 3 257 3
      vertex 67 200 3
      vertex 67 257 3
    endloop
  endfacet
  facet normal 0 0 1
    outer loop
      vertex 67 200 3
      vertex 3 257 3
      vertex 3 200 3
    endloop
  endfacet
  facet normal 0 0 1
    outer loop
      vertex 282 90 3
      vertex 276.5 32 3
      vertex 282 32 3
    endloop
  endfacet
  facet normal -0 0 1
    outer loop
      vertex 215.861 59.4066 3
      vertex 276.5 32 3
      vertex 217.5 75 3
    endloop
  endfacet
  facet normal 0 0 1
    outer loop
      vertex 282 90 3
      vertex 217.5 75 3
      vertex 276.5 32 3
    endloop
  endfacet
  facet normal 0 -0 1
    outer loop
      vertex 217.5 75 3
      vertex 282 90 3
      vertex 215.923 90 3
    endloop
  endfacet
  facet normal -0 0 1
    outer loop
      vertex 211.016 44.4948 3
      vertex 276.5 32 3
      vertex 215.861 59.4066 3
    endloop
  endfacet
  facet normal 0 0 1
    outer loop
      vertex 203.176 30.9161 3
      vertex 276.5 32 3
      vertex 211.016 44.4948 3
    endloop
  endfacet
  facet normal 0 0 1
    outer loop
      vertex 276.5 32 3
      vertex 203.176 30.9161 3
      vertex 276.5 3 3
    endloop
  endfacet
  facet normal -0 0 1
    outer loop
      vertex 192.685 19.2641 3
      vertex 276.5 3 3
      vertex 203.176 30.9161 3
    endloop
  endfacet
  facet normal -0 0 1
    outer loop
      vertex 180 10.0481 3
      vertex 276.5 3 3
      vertex 192.685 19.2641 3
    endloop
  endfacet
  facet normal -0 0 1
    outer loop
      vertex 165.676 3.67076 3
      vertex 276.5 3 3
      vertex 180 10.0481 3
    endloop
  endfacet
  facet normal 0 0 1
    outer loop
      vertex 276.5 3 3
      vertex 165.676 3.67076 3
      vertex 162.521 3 3
    endloop
  endfacet
  facet normal -0 0 1
    outer loop
      vertex 70 257 3
      vertex 175 183 3
      vertex 175 257 3
    endloop
  endfacet
  facet normal 0 0 1
    outer loop
      vertex 175 183 3
      vertex 70 257 3
      vertex 70 183 3
    endloop
  endfacet
  facet normal 0 0 1
    outer loop
      vertex 67 197 3
      vertex 8.5 32 3
      vertex 67 3 3
    endloop
  endfacet
  facet normal -0 0 1
    outer loop
      vertex 3 197 3
      vertex 8.5 32 3
      vertex 67 197 3
    endloop
  endfacet
  facet normal 0 0 1
    outer loop
      vertex 8.5 32 3
      vertex 3 197 3
      vertex 3 32 3
    endloop
  endfacet
  facet normal 0 0 1
    outer loop
      vertex 67 3 3
      vertex 8.5 32 3
      vertex 8.5 3 3
    endloop
  endfacet
  facet normal 0 0 1
    outer loop
      vertex 175 140.545 3
      vertex 165.213 144.903 3
      vertex 175 140 3
    endloop
  endfacet
  facet normal 0 0 1
    outer loop
      vertex 214.394 90.2815 3
      vertex 214.394 59.7185 3
      vertex 216 75 3
    endloop
  endfacet
  facet normal 0 0 1
    outer loop
      vertex 209.646 104.895 3
      vertex 214.394 59.7185 3
      vertex 214.394 90.2815 3
    endloop
  endfacet
  facet normal 0 0 1
    outer loop
      vertex 209.646 104.895 3
      vertex 209.646 45.1049 3
      vertex 214.394 59.7185 3
    endloop
  endfacet
  facet normal 0 0 1
    outer loop
      vertex 175 140 3
      vertex 209.646 104.895 3
      vertex 201.963 118.202 3
    endloop
  endfacet
  facet normal 0 0 1
    outer loop
      vertex 209.646 104.895 3
      vertex 175 140 3
      vertex 209.646 45.1049 3
    endloop
  endfacet
  facet normal 0 0 1
    outer loop
      vertex 175 140 3
      vertex 201.963 118.202 3
      vertex 191.681 129.621 3
    endloop
  endfacet
  facet normal 0 0 1
    outer loop
      vertex 209.646 45.1049 3
      vertex 175 140 3
      vertex 201.963 31.7978 3
    endloop
  endfacet
  facet normal 0 0 1
    outer loop
      vertex 175 140 3
      vertex 191.681 129.621 3
      vertex 179.25 138.653 3
    endloop
  endfacet
  facet normal 0 0 1
    outer loop
      vertex 201.963 31.7978 3
      vertex 175 140 3
      vertex 191.681 20.3789 3
    endloop
  endfacet
  facet normal -0 0 1
    outer loop
      vertex 175 140 3
      vertex 179.25 138.653 3
      vertex 176.224 140 3
    endloop
  endfacet
  facet normal 0 0 1
    outer loop
      vertex 155.346 3 3
      vertex 191.681 20.3789 3
      vertex 175 140 3
    endloop
  endfacet
  facet normal 0 0 1
    outer loop
      vertex 150.183 148.097 3
      vertex 175 140 3
      vertex 165.213 144.903 3
    endloop
  endfacet
  facet normal 0 0 1
    outer loop
      vertex 191.681 20.3789 3
      vertex 155.346 3 3
      vertex 179.25 11.3471 3
    endloop
  endfacet
  facet normal 0 0 1
    outer loop
      vertex 179.25 11.3471 3
      vertex 155.346 3 3
      vertex 165.213 5.09735 3
    endloop
  endfacet
  facet normal -0 0 1
    outer loop
      vertex 134.817 148.097 3
      vertex 175 140 3
      vertex 150.183 148.097 3
    endloop
  endfacet
  facet normal -0 0 1
    outer loop
      vertex 119.787 144.903 3
      vertex 175 140 3
      vertex 134.817 148.097 3
    endloop
  endfacet
  facet normal 0 0 1
    outer loop
      vertex 105.75 138.653 3
      vertex 175 140 3
      vertex 119.787 144.903 3
    endloop
  endfacet
  facet normal 0 0 1
    outer loop
      vertex 93.3189 129.621 3
      vertex 175 140 3
      vertex 105.75 138.653 3
    endloop
  endfacet
  facet normal 0 0 1
    outer loop
      vertex 70 84.5144 3
      vertex 175 140 3
      vertex 93.3189 129.621 3
    endloop
  endfacet
  facet normal 0 0 1
    outer loop
      vertex 70 84.5144 3
      vertex 93.3189 129.621 3
      vertex 83.0373 118.202 3
    endloop
  endfacet
  facet normal 0 0 1
    outer loop
      vertex 70 84.5144 3
      vertex 83.0373 118.202 3
      vertex 75.3544 104.895 3
    endloop
  endfacet
  facet normal 0 0 1
    outer loop
      vertex 70 84.5144 3
      vertex 75.3544 104.895 3
      vertex 70.6062 90.2815 3
    endloop
  endfacet
  facet normal 0 0 1
    outer loop
      vertex 175 140 3
      vertex 70 84.5144 3
      vertex 155.346 3 3
    endloop
  endfacet
  facet normal 0 0 1
    outer loop
      vertex 155.346 3 3
      vertex 70 84.5144 3
      vertex 70 3 3
    endloop
  endfacet
  facet normal 0 0 1
    outer loop
      vertex 175 180 3
      vertex 165.676 146.329 3
      vertex 175 142.178 3
    endloop
  endfacet
  facet normal 0 0 1
    outer loop
      vertex 175 180 3
      vertex 150.34 149.589 3
      vertex 165.676 146.329 3
    endloop
  endfacet
  facet normal 0 0 1
    outer loop
      vertex 175 180 3
      vertex 134.66 149.589 3
      vertex 150.34 149.589 3
    endloop
  endfacet
  facet normal -0 0 1
    outer loop
      vertex 70 180 3
      vertex 134.66 149.589 3
      vertex 175 180 3
    endloop
  endfacet
  facet normal 0 0 1
    outer loop
      vertex 134.66 149.589 3
      vertex 70 180 3
      vertex 119.324 146.329 3
    endloop
  endfacet
  facet normal 0 0 1
    outer loop
      vertex 119.324 146.329 3
      vertex 70 180 3
      vertex 105 139.952 3
    endloop
  endfacet
  facet normal 0 0 1
    outer loop
      vertex 70 180 3
      vertex 92.3152 130.736 3
      vertex 105 139.952 3
    endloop
  endfacet
  facet normal 0 0 1
    outer loop
      vertex 70 180 3
      vertex 81.8237 119.084 3
      vertex 92.3152 130.736 3
    endloop
  endfacet
  facet normal 0 0 1
    outer loop
      vertex 70 180 3
      vertex 73.9841 105.505 3
      vertex 81.8237 119.084 3
    endloop
  endfacet
  facet normal 0 0 1
    outer loop
      vertex 73.9841 105.505 3
      vertex 70 180 3
      vertex 70 93.2435 3
    endloop
  endfacet
  facet normal -0 0 1
    outer loop
      vertex 211.016 105.505 3
      vertex 282 93 3
      vertex 282 180 3
    endloop
  endfacet
  facet normal 0 0 1
    outer loop
      vertex 282 93 3
      vertex 211.016 105.505 3
      vertex 215.079 93 3
    endloop
  endfacet
  facet normal 0 0 1
    outer loop
      vertex 282 180 3
      vertex 203.176 119.084 3
      vertex 211.016 105.505 3
    endloop
  endfacet
  facet normal 0 0 1
    outer loop
      vertex 282 180 3
      vertex 192.685 130.736 3
      vertex 203.176 119.084 3
    endloop
  endfacet
  facet normal -0 0 1
    outer loop
      vertex 178 180 3
      vertex 192.685 130.736 3
      vertex 282 180 3
    endloop
  endfacet
  facet normal 0 0 1
    outer loop
      vertex 192.685 130.736 3
      vertex 178 180 3
      vertex 180 139.952 3
    endloop
  endfacet
  facet normal 0 0 1
    outer loop
      vertex 180 139.952 3
      vertex 178 180 3
      vertex 178 140.842 3
    endloop
  endfacet
  facet normal 1 -0 0
    outer loop
      vertex 3 200 45
      vertex 3 257 3
      vertex 3 257 45
    endloop
  endfacet
  facet normal 1 0 0
    outer loop
      vertex 3 257 3
      vertex 3 200 45
      vertex 3 200 3
    endloop
  endfacet
  facet normal 1 -0 0
    outer loop
      vertex 3 32 45
      vertex 3 197 3
      vertex 3 197 45
    endloop
  endfacet
  facet normal 1 0 0
    outer loop
      vertex 3 197 3
      vertex 3 32 45
      vertex 3 32 3
    endloop
  endfacet
  facet normal 0 -1 0
    outer loop
      vertex 178 257 3
      vertex 282 257 45
      vertex 178 257 45
    endloop
  endfacet
  facet normal 0 -1 -0
    outer loop
      vertex 282 257 45
      vertex 178 257 3
      vertex 282 257 3
    endloop
  endfacet
  facet normal 0 -1 0
    outer loop
      vertex 3 257 3
      vertex 67 257 45
      vertex 3 257 45
    endloop
  endfacet
  facet normal 0 -1 -0
    outer loop
      vertex 67 257 45
      vertex 3 257 3
      vertex 67 257 3
    endloop
  endfacet
  facet normal 0 -1 0
    outer loop
      vertex 70 257 3
      vertex 175 257 45
      vertex 70 257 45
    endloop
  endfacet
  facet normal 0 -1 -0
    outer loop
      vertex 175 257 45
      vertex 70 257 3
      vertex 175 257 3
    endloop
  endfacet
  facet normal 0 1 -0
    outer loop
      vertex 67 3 3
      vertex 8.5 3 45
      vertex 67 3 45
    endloop
  endfacet
  facet normal 0 1 0
    outer loop
      vertex 8.5 3 45
      vertex 67 3 3
      vertex 8.5 3 3
    endloop
  endfacet
  facet normal 0 1 -0
    outer loop
      vertex 155.346 3 3
      vertex 70 3 45
      vertex 155.346 3 45
    endloop
  endfacet
  facet normal 0 1 0
    outer loop
      vertex 70 3 45
      vertex 155.346 3 3
      vertex 70 3 3
    endloop
  endfacet
  facet normal 0 1 -0
    outer loop
      vertex 276.5 3 3
      vertex 162.521 3 45
      vertex 276.5 3 45
    endloop
  endfacet
  facet normal 0 1 0
    outer loop
      vertex 162.521 3 45
      vertex 276.5 3 3
      vertex 162.521 3 3
    endloop
  endfacet
  facet normal -1 0 0
    outer loop
      vertex 5.5 0 0
      vertex 5.5 29 45
      vertex 5.5 29 0
    endloop
  endfacet
  facet normal -1 -0 0
    outer loop
      vertex 5.5 29 45
      vertex 5.5 0 0
      vertex 5.5 0 45
    endloop
  endfacet
  facet normal 0 -1 0
    outer loop
      vertex 0 29 0
      vertex 5.5 29 45
      vertex 0 29 45
    endloop
  endfacet
  facet normal 0 -1 -0
    outer loop
      vertex 5.5 29 45
      vertex 0 29 0
      vertex 5.5 29 0
    endloop
  endfacet
  facet normal 1 -0 0
    outer loop
      vertex 279.5 0 45
      vertex 279.5 29 0
      vertex 279.5 29 45
    endloop
  endfacet
  facet normal 1 0 0
    outer loop
      vertex 279.5 29 0
      vertex 279.5 0 45
      vertex 279.5 0 0
    endloop
  endfacet
  facet normal 0 -1 0
    outer loop
      vertex 282 29 0
      vertex 285 29 45
      vertex 282 29 45
    endloop
  endfacet
  facet normal 0 -1 -0
    outer loop
      vertex 285 29 45
      vertex 282 29 0
      vertex 285 29 0
    endloop
  endfacet
  facet normal 0 -1 0
    outer loop
      vertex 279.5 29 0
      vertex 282 29 45
      vertex 279.5 29 45
    endloop
  endfacet
  facet normal 0 -1 -0
    outer loop
      vertex 282 29 45
      vertex 279.5 29 0
      vertex 282 29 0
    endloop
  endfacet
  facet normal 0.951059 0.309009 1.29078e-18
    outer loop
      vertex 215.079 93 45
      vertex 211.016 105.505 3
      vertex 211.016 105.505 45
    endloop
  endfacet
  facet normal 0.951059 0.309009 1.29078e-18
    outer loop
      vertex 211.016 105.505 3
      vertex 215.079 93 45
      vertex 215.079 93 3
    endloop
  endfacet
  facet normal 0.994519 0.104557 0
    outer loop
      vertex 217.5 75 45
      vertex 215.923 90 3
      vertex 215.923 90 45
    endloop
  endfacet
  facet normal 0.994519 0.104557 0
    outer loop
      vertex 215.923 90 3
      vertex 217.5 75 45
      vertex 217.5 75 3
    endloop
  endfacet
  facet normal 0.994521 -0.104533 6.85231e-19
    outer loop
      vertex 215.861 59.4066 45
      vertex 217.5 75 3
      vertex 217.5 75 45
    endloop
  endfacet
  facet normal 0.994521 -0.104533 6.85231e-19
    outer loop
      vertex 217.5 75 3
      vertex 215.861 59.4066 45
      vertex 215.861 59.4066 3
    endloop
  endfacet
  facet normal 0.406711 0.913557 -0
    outer loop
      vertex 175 142.178 3
      vertex 165.676 146.329 45
      vertex 175 142.178 45
    endloop
  endfacet
  facet normal 0.406711 0.913557 0
    outer loop
      vertex 165.676 146.329 45
      vertex 175 142.178 3
      vertex 165.676 146.329 3
    endloop
  endfacet
  facet normal 0.406562 0.913623 -0
    outer loop
      vertex 180 139.952 3
      vertex 178 140.842 45
      vertex 180 139.952 45
    endloop
  endfacet
  facet normal 0.406562 0.913623 0
    outer loop
      vertex 178 140.842 45
      vertex 180 139.952 3
      vertex 178 140.842 3
    endloop
  endfacet
  facet normal 0.40673 -0.913548 0
    outer loop
      vertex 165.676 3.67076 3
      vertex 180 10.0481 45
      vertex 165.676 3.67076 45
    endloop
  endfacet
  facet normal 0.40673 -0.913548 0
    outer loop
      vertex 180 10.0481 45
      vertex 165.676 3.67076 3
      vertex 180 10.0481 3
    endloop
  endfacet
  facet normal -0.587783 0.809018 0
    outer loop
      vertex 105 139.952 3
      vertex 92.3152 130.736 45
      vertex 105 139.952 45
    endloop
  endfacet
  facet normal -0.587783 0.809018 0
    outer loop
      vertex 92.3152 130.736 45
      vertex 105 139.952 3
      vertex 92.3152 130.736 3
    endloop
  endfacet
  facet normal -0.207926 0.978145 0
    outer loop
      vertex 134.66 149.589 3
      vertex 119.324 146.329 45
      vertex 134.66 149.589 45
    endloop
  endfacet
  facet normal -0.207926 0.978145 0
    outer loop
      vertex 119.324 146.329 45
      vertex 134.66 149.589 3
      vertex 119.324 146.329 3
    endloop
  endfacet
  facet normal -0.743145 0.66913 1.05284e-17
    outer loop
      vertex 81.8237 119.084 3
      vertex 92.3152 130.736 45
      vertex 92.3152 130.736 3
    endloop
  endfacet
  facet normal -0.743145 0.66913 1.05284e-17
    outer loop
      vertex 92.3152 130.736 45
      vertex 81.8237 119.084 3
      vertex 81.8237 119.084 45
    endloop
  endfacet
  facet normal -0.951054 0.309024 -3.55182e-18
    outer loop
      vertex 70 93.2435 3
      vertex 73.9841 105.505 45
      vertex 73.9841 105.505 3
    endloop
  endfacet
  facet normal -0.951054 0.309024 -3.55182e-18
    outer loop
      vertex 73.9841 105.505 45
      vertex 70 93.2435 3
      vertex 70 93.2435 45
    endloop
  endfacet
  facet normal 0.743161 -0.669113 6.46004e-18
    outer loop
      vertex 192.685 19.2641 45
      vertex 203.176 30.9161 3
      vertex 203.176 30.9161 45
    endloop
  endfacet
  facet normal 0.743161 -0.669113 6.46004e-18
    outer loop
      vertex 203.176 30.9161 3
      vertex 192.685 19.2641 45
      vertex 192.685 19.2641 3
    endloop
  endfacet
  facet normal 0.866016 -0.500016 -2.18193e-18
    outer loop
      vertex 203.176 30.9161 45
      vertex 211.016 44.4948 3
      vertex 211.016 44.4948 45
    endloop
  endfacet
  facet normal 0.866016 -0.500016 -2.18193e-18
    outer loop
      vertex 211.016 44.4948 3
      vertex 203.176 30.9161 45
      vertex 203.176 30.9161 3
    endloop
  endfacet
  facet normal 0.587777 -0.809023 0
    outer loop
      vertex 180 10.0481 3
      vertex 192.685 19.2641 45
      vertex 180 10.0481 45
    endloop
  endfacet
  facet normal 0.587777 -0.809023 0
    outer loop
      vertex 192.685 19.2641 45
      vertex 180 10.0481 3
      vertex 192.685 19.2641 3
    endloop
  endfacet
  facet normal 0 1 -0
    outer loop
      vertex 150.34 149.589 3
      vertex 134.66 149.589 45
      vertex 150.34 149.589 45
    endloop
  endfacet
  facet normal 0 1 0
    outer loop
      vertex 134.66 149.589 45
      vertex 150.34 149.589 3
      vertex 134.66 149.589 3
    endloop
  endfacet
  facet normal 0.951059 -0.309009 -3.08471e-18
    outer loop
      vertex 211.016 44.4948 45
      vertex 215.861 59.4066 3
      vertex 215.861 59.4066 45
    endloop
  endfacet
  facet normal 0.951059 -0.309009 -3.08471e-18
    outer loop
      vertex 215.861 59.4066 3
      vertex 211.016 44.4948 45
      vertex 211.016 44.4948 3
    endloop
  endfacet
  facet normal 0.587777 0.809023 -0
    outer loop
      vertex 192.685 130.736 3
      vertex 180 139.952 45
      vertex 192.685 130.736 45
    endloop
  endfacet
  facet normal 0.587777 0.809023 0
    outer loop
      vertex 180 139.952 45
      vertex 192.685 130.736 3
      vertex 180 139.952 3
    endloop
  endfacet
  facet normal -0.406712 0.913556 0
    outer loop
      vertex 119.324 146.329 3
      vertex 105 139.952 45
      vertex 119.324 146.329 45
    endloop
  endfacet
  facet normal -0.406712 0.913556 0
    outer loop
      vertex 105 139.952 45
      vertex 119.324 146.329 3
      vertex 105 139.952 3
    endloop
  endfacet
  facet normal 0.743161 0.669113 4.13578e-18
    outer loop
      vertex 203.176 119.084 45
      vertex 192.685 130.736 3
      vertex 192.685 130.736 45
    endloop
  endfacet
  facet normal 0.743161 0.669113 4.13578e-18
    outer loop
      vertex 192.685 130.736 3
      vertex 203.176 119.084 45
      vertex 203.176 119.084 3
    endloop
  endfacet
  facet normal 0.866021 0.500008 -5.5881e-18
    outer loop
      vertex 211.016 105.505 45
      vertex 203.176 119.084 3
      vertex 203.176 119.084 45
    endloop
  endfacet
  facet normal 0.866021 0.500008 -5.5881e-18
    outer loop
      vertex 203.176 119.084 3
      vertex 211.016 105.505 45
      vertex 211.016 105.505 3
    endloop
  endfacet
  facet normal 0.207954 -0.978139 0
    outer loop
      vertex 162.521 3 3
      vertex 165.676 3.67076 45
      vertex 162.521 3 45
    endloop
  endfacet
  facet normal 0.207954 -0.978139 0
    outer loop
      vertex 165.676 3.67076 45
      vertex 162.521 3 3
      vertex 165.676 3.67076 3
    endloop
  endfacet
  facet normal 0.207926 0.978145 -0
    outer loop
      vertex 165.676 146.329 3
      vertex 150.34 149.589 45
      vertex 165.676 146.329 45
    endloop
  endfacet
  facet normal 0.207926 0.978145 0
    outer loop
      vertex 150.34 149.589 45
      vertex 165.676 146.329 3
      vertex 150.34 149.589 3
    endloop
  endfacet
  facet normal -0.866032 0.499989 -5.40038e-18
    outer loop
      vertex 73.9841 105.505 3
      vertex 81.8237 119.084 45
      vertex 81.8237 119.084 3
    endloop
  endfacet
  facet normal -0.866032 0.499989 -5.40038e-18
    outer loop
      vertex 81.8237 119.084 45
      vertex 73.9841 105.505 3
      vertex 73.9841 105.505 45
    endloop
  endfacet
  facet normal -0.86602 -0.50001 6.34583e-18
    outer loop
      vertex 209.646 104.895 3
      vertex 201.963 118.202 45
      vertex 201.963 118.202 3
    endloop
  endfacet
  facet normal -0.86602 -0.50001 6.34583e-18
    outer loop
      vertex 201.963 118.202 45
      vertex 209.646 104.895 3
      vertex 209.646 104.895 45
    endloop
  endfacet
  facet normal -0.951061 -0.309004 9.45273e-18
    outer loop
      vertex 214.394 90.2815 3
      vertex 209.646 104.895 45
      vertex 209.646 104.895 3
    endloop
  endfacet
  facet normal -0.951061 -0.309004 9.45273e-18
    outer loop
      vertex 209.646 104.895 45
      vertex 214.394 90.2815 3
      vertex 214.394 90.2815 45
    endloop
  endfacet
  facet normal -0.994523 -0.104519 1.89584e-18
    outer loop
      vertex 216 75 3
      vertex 214.394 90.2815 45
      vertex 214.394 90.2815 3
    endloop
  endfacet
  facet normal -0.994523 -0.104519 1.89584e-18
    outer loop
      vertex 214.394 90.2815 45
      vertex 216 75 3
      vertex 216 75 45
    endloop
  endfacet
  facet normal -0.994523 0.104519 -7.28778e-19
    outer loop
      vertex 214.394 59.7185 3
      vertex 216 75 45
      vertex 216 75 3
    endloop
  endfacet
  facet normal -0.994523 0.104519 -7.28778e-19
    outer loop
      vertex 216 75 45
      vertex 214.394 59.7185 3
      vertex 214.394 59.7185 45
    endloop
  endfacet
  facet normal -0.951061 0.309002 -3.06388e-18
    outer loop
      vertex 209.646 45.1049 3
      vertex 214.394 59.7185 45
      vertex 214.394 59.7185 3
    endloop
  endfacet
  facet normal -0.951061 0.309002 -3.06388e-18
    outer loop
      vertex 214.394 59.7185 45
      vertex 209.646 45.1049 3
      vertex 209.646 45.1049 45
    endloop
  endfacet
  facet normal -0.406779 -0.913526 0
    outer loop
      vertex 165.213 144.903 3
      vertex 175 140.545 45
      vertex 165.213 144.903 45
    endloop
  endfacet
  facet normal -0.406779 -0.913526 -0
    outer loop
      vertex 175 140.545 45
      vertex 165.213 144.903 3
      vertex 175 140.545 3
    endloop
  endfacet
  facet normal -0.406671 -0.913575 0
    outer loop
      vertex 176.224 140 3
      vertex 179.25 138.653 45
      vertex 176.224 140 45
    endloop
  endfacet
  facet normal -0.406671 -0.913575 -0
    outer loop
      vertex 179.25 138.653 45
      vertex 176.224 140 3
      vertex 179.25 138.653 3
    endloop
  endfacet
  facet normal -0.587792 0.809012 0
    outer loop
      vertex 191.681 20.3789 3
      vertex 179.25 11.3471 45
      vertex 191.681 20.3789 45
    endloop
  endfacet
  facet normal -0.587792 0.809012 0
    outer loop
      vertex 179.25 11.3471 45
      vertex 191.681 20.3789 3
      vertex 179.25 11.3471 3
    endloop
  endfacet
  facet normal 0.587797 -0.809008 0
    outer loop
      vertex 93.3189 129.621 3
      vertex 105.75 138.653 45
      vertex 93.3189 129.621 45
    endloop
  endfacet
  facet normal 0.587797 -0.809008 0
    outer loop
      vertex 105.75 138.653 45
      vertex 93.3189 129.621 3
      vertex 105.75 138.653 3
    endloop
  endfacet
  facet normal -0.866021 0.500007 6.27601e-18
    outer loop
      vertex 201.963 31.7978 3
      vertex 209.646 45.1049 45
      vertex 209.646 45.1049 3
    endloop
  endfacet
  facet normal -0.866021 0.500007 6.27601e-18
    outer loop
      vertex 209.646 45.1049 45
      vertex 201.963 31.7978 3
      vertex 201.963 31.7978 45
    endloop
  endfacet
  facet normal 0 -1 0
    outer loop
      vertex 134.817 148.097 3
      vertex 150.183 148.097 45
      vertex 134.817 148.097 45
    endloop
  endfacet
  facet normal 0 -1 -0
    outer loop
      vertex 150.183 148.097 45
      vertex 134.817 148.097 3
      vertex 150.183 148.097 3
    endloop
  endfacet
  facet normal 0.951057 -0.309016 5.05928e-18
    outer loop
      vertex 70.6062 90.2815 45
      vertex 75.3544 104.895 3
      vertex 75.3544 104.895 45
    endloop
  endfacet
  facet normal 0.951057 -0.309016 5.05928e-18
    outer loop
      vertex 75.3544 104.895 3
      vertex 70.6062 90.2815 45
      vertex 70.6062 90.2815 3
    endloop
  endfacet
  facet normal 0.866023 -0.500005 -6.76457e-18
    outer loop
      vertex 75.3544 104.895 45
      vertex 83.0373 118.202 3
      vertex 83.0373 118.202 45
    endloop
  endfacet
  facet normal 0.866023 -0.500005 -6.76457e-18
    outer loop
      vertex 83.0373 118.202 3
      vertex 75.3544 104.895 45
      vertex 75.3544 104.895 3
    endloop
  endfacet
  facet normal 0.743149 -0.669127 8.60487e-18
    outer loop
      vertex 83.0373 118.202 45
      vertex 93.3189 129.621 3
      vertex 93.3189 129.621 45
    endloop
  endfacet
  facet normal 0.743149 -0.669127 8.60487e-18
    outer loop
      vertex 93.3189 129.621 3
      vertex 83.0373 118.202 45
      vertex 83.0373 118.202 3
    endloop
  endfacet
  facet normal 0.207867 -0.978157 0
    outer loop
      vertex 119.787 144.903 3
      vertex 134.817 148.097 45
      vertex 119.787 144.903 45
    endloop
  endfacet
  facet normal 0.207867 -0.978157 0
    outer loop
      vertex 134.817 148.097 45
      vertex 119.787 144.903 3
      vertex 134.817 148.097 3
    endloop
  endfacet
  facet normal -0.207917 0.978147 0
    outer loop
      vertex 165.213 5.09735 3
      vertex 155.346 3 45
      vertex 165.213 5.09735 45
    endloop
  endfacet
  facet normal -0.207917 0.978147 0
    outer loop
      vertex 155.346 3 45
      vertex 165.213 5.09735 3
      vertex 155.346 3 3
    endloop
  endfacet
  facet normal -0.743133 0.669144 -1.02675e-17
    outer loop
      vertex 191.681 20.3789 3
      vertex 201.963 31.7978 45
      vertex 201.963 31.7978 3
    endloop
  endfacet
  facet normal -0.743133 0.669144 -1.02675e-17
    outer loop
      vertex 201.963 31.7978 45
      vertex 191.681 20.3789 3
      vertex 191.681 20.3789 45
    endloop
  endfacet
  facet normal 0.406754 -0.913538 0
    outer loop
      vertex 105.75 138.653 3
      vertex 119.787 144.903 45
      vertex 105.75 138.653 45
    endloop
  endfacet
  facet normal 0.406754 -0.913538 0
    outer loop
      vertex 119.787 144.903 45
      vertex 105.75 138.653 3
      vertex 119.787 144.903 3
    endloop
  endfacet
  facet normal -0.406741 0.913544 0
    outer loop
      vertex 179.25 11.3471 3
      vertex 165.213 5.09735 45
      vertex 179.25 11.3471 45
    endloop
  endfacet
  facet normal -0.406741 0.913544 0
    outer loop
      vertex 165.213 5.09735 45
      vertex 179.25 11.3471 3
      vertex 165.213 5.09735 3
    endloop
  endfacet
  facet normal -0.5878 -0.809006 0
    outer loop
      vertex 179.25 138.653 3
      vertex 191.681 129.621 45
      vertex 179.25 138.653 45
    endloop
  endfacet
  facet normal -0.5878 -0.809006 -0
    outer loop
      vertex 191.681 129.621 45
      vertex 179.25 138.653 3
      vertex 191.681 129.621 3
    endloop
  endfacet
  facet normal -0.743136 -0.669141 -2.66632e-18
    outer loop
      vertex 201.963 118.202 3
      vertex 191.681 129.621 45
      vertex 191.681 129.621 3
    endloop
  endfacet
  facet normal -0.743136 -0.669141 -2.66632e-18
    outer loop
      vertex 191.681 129.621 45
      vertex 201.963 118.202 3
      vertex 201.963 118.202 45
    endloop
  endfacet
  facet normal -0.207867 -0.978157 0
    outer loop
      vertex 150.183 148.097 3
      vertex 165.213 144.903 45
      vertex 150.183 148.097 45
    endloop
  endfacet
  facet normal -0.207867 -0.978157 -0
    outer loop
      vertex 165.213 144.903 45
      vertex 150.183 148.097 3
      vertex 165.213 144.903 3
    endloop
  endfacet
  facet normal 0.994521 -0.104538 -8.30136e-19
    outer loop
      vertex 70 84.5144 45
      vertex 70.6062 90.2815 3
      vertex 70.6062 90.2815 45
    endloop
  endfacet
  facet normal 0.994521 -0.104538 -8.30136e-19
    outer loop
      vertex 70.6062 90.2815 3
      vertex 70 84.5144 45
      vertex 70 84.5144 3
    endloop
  endfacet
  facet normal 1 -0 0
    outer loop
      vertex 8.5 3 45
      vertex 8.5 32 3
      vertex 8.5 32 45
    endloop
  endfacet
  facet normal 1 0 0
    outer loop
      vertex 8.5 32 3
      vertex 8.5 3 45
      vertex 8.5 3 3
    endloop
  endfacet
  facet normal 0 1 -0
    outer loop
      vertex 8.5 32 3
      vertex 3 32 45
      vertex 8.5 32 45
    endloop
  endfacet
  facet normal 0 1 0
    outer loop
      vertex 3 32 45
      vertex 8.5 32 3
      vertex 3 32 3
    endloop
  endfacet
  facet normal -1 0 0
    outer loop
      vertex 276.5 3 3
      vertex 276.5 32 45
      vertex 276.5 32 3
    endloop
  endfacet
  facet normal -1 -0 0
    outer loop
      vertex 276.5 32 45
      vertex 276.5 3 3
      vertex 276.5 3 45
    endloop
  endfacet
  facet normal 0 1 -0
    outer loop
      vertex 282 32 3
      vertex 276.5 32 45
      vertex 282 32 45
    endloop
  endfacet
  facet normal 0 1 0
    outer loop
      vertex 276.5 32 45
      vertex 282 32 3
      vertex 276.5 32 3
    endloop
  endfacet
  facet normal 1 -0 0
    outer loop
      vertex 70 183 45
      vertex 70 257 3
      vertex 70 257 45
    endloop
  endfacet
  facet normal 1 0 0
    outer loop
      vertex 70 257 3
      vertex 70 183 45
      vertex 70 183 3
    endloop
  endfacet
  facet normal 1 -0 0
    outer loop
      vertex 70 3 45
      vertex 70 84.5144 3
      vertex 70 84.5144 45
    endloop
  endfacet
  facet normal 1 0 0
    outer loop
      vertex 70 84.5144 3
      vertex 70 3 45
      vertex 70 3 3
    endloop
  endfacet
  facet normal 1 -0 0
    outer loop
      vertex 70 93.2435 45
      vertex 70 180 3
      vertex 70 180 45
    endloop
  endfacet
  facet normal 1 0 0
    outer loop
      vertex 70 180 3
      vertex 70 93.2435 45
      vertex 70 93.2435 3
    endloop
  endfacet
  facet normal 0 1 -0
    outer loop
      vertex 67 200 3
      vertex 3 200 45
      vertex 67 200 45
    endloop
  endfacet
  facet normal 0 1 0
    outer loop
      vertex 3 200 45
      vertex 67 200 3
      vertex 3 200 3
    endloop
  endfacet
  facet normal 0 -1 0
    outer loop
      vertex 3 197 3
      vertex 67 197 45
      vertex 3 197 45
    endloop
  endfacet
  facet normal 0 -1 -0
    outer loop
      vertex 67 197 45
      vertex 3 197 3
      vertex 67 197 3
    endloop
  endfacet
  facet normal -1 0 0
    outer loop
      vertex 67 200 3
      vertex 67 257 45
      vertex 67 257 3
    endloop
  endfacet
  facet normal -1 -0 0
    outer loop
      vertex 67 257 45
      vertex 67 200 3
      vertex 67 200 45
    endloop
  endfacet
  facet normal -1 0 0
    outer loop
      vertex 67 3 3
      vertex 67 197 45
      vertex 67 197 3
    endloop
  endfacet
  facet normal -1 -0 0
    outer loop
      vertex 67 197 45
      vertex 67 3 3
      vertex 67 3 45
    endloop
  endfacet
  facet normal 0 1 -0
    outer loop
      vertex 175 183 3
      vertex 70 183 45
      vertex 175 183 45
    endloop
  endfacet
  facet normal 0 1 0
    outer loop
      vertex 70 183 45
      vertex 175 183 3
      vertex 70 183 3
    endloop
  endfacet
  facet normal 0 1 -0
    outer loop
      vertex 282 183 3
      vertex 178 183 45
      vertex 282 183 45
    endloop
  endfacet
  facet normal 0 1 0
    outer loop
      vertex 178 183 45
      vertex 282 183 3
      vertex 178 183 3
    endloop
  endfacet
  facet normal 0 -1 0
    outer loop
      vertex 70 180 3
      vertex 175 180 45
      vertex 70 180 45
    endloop
  endfacet
  facet normal 0 -1 -0
    outer loop
      vertex 175 180 45
      vertex 70 180 3
      vertex 175 180 3
    endloop
  endfacet
  facet normal 0 -1 0
    outer loop
      vertex 178 180 3
      vertex 282 180 45
      vertex 178 180 45
    endloop
  endfacet
  facet normal 0 -1 -0
    outer loop
      vertex 282 180 45
      vertex 178 180 3
      vertex 282 180 3
    endloop
  endfacet
  facet normal 0 1 -0
    outer loop
      vertex 282 93 3
      vertex 215.079 93 45
      vertex 282 93 45
    endloop
  endfacet
  facet normal 0 1 0
    outer loop
      vertex 215.079 93 45
      vertex 282 93 3
      vertex 215.079 93 3
    endloop
  endfacet
  facet normal 0 -1 0
    outer loop
      vertex 215.923 90 3
      vertex 282 90 45
      vertex 215.923 90 45
    endloop
  endfacet
  facet normal 0 -1 -0
    outer loop
      vertex 282 90 45
      vertex 215.923 90 3
      vertex 282 90 3
    endloop
  endfacet
  facet normal 1 -0 0
    outer loop
      vertex 178 183 45
      vertex 178 257 3
      vertex 178 257 45
    endloop
  endfacet
  facet normal 1 0 0
    outer loop
      vertex 178 257 3
      vertex 178 183 45
      vertex 178 183 3
    endloop
  endfacet
  facet normal 1 -0 0
    outer loop
      vertex 178 140.842 45
      vertex 178 180 3
      vertex 178 180 45
    endloop
  endfacet
  facet normal 1 0 0
    outer loop
      vertex 178 180 3
      vertex 178 140.842 45
      vertex 178 140.842 3
    endloop
  endfacet
  facet normal -1 0 0
    outer loop
      vertex 175 140 3
      vertex 175 140.545 45
      vertex 175 140.545 3
    endloop
  endfacet
  facet normal -1 -0 0
    outer loop
      vertex 175 140.545 45
      vertex 175 140 3
      vertex 175 140 45
    endloop
  endfacet
  facet normal -1 0 0
    outer loop
      vertex 175 183 3
      vertex 175 257 45
      vertex 175 257 3
    endloop
  endfacet
  facet normal -1 -0 0
    outer loop
      vertex 175 257 45
      vertex 175 183 3
      vertex 175 183 45
    endloop
  endfacet
  facet normal -1 0 0
    outer loop
      vertex 175 142.178 3
      vertex 175 180 45
      vertex 175 180 3
    endloop
  endfacet
  facet normal -1 -0 0
    outer loop
      vertex 175 180 45
      vertex 175 142.178 3
      vertex 175 142.178 45
    endloop
  endfacet
  facet normal 0 -1 0
    outer loop
      vertex 175 140 3
      vertex 176.224 140 45
      vertex 175 140 45
    endloop
  endfacet
  facet normal 0 -1 -0
    outer loop
      vertex 176.224 140 45
      vertex 175 140 3
      vertex 176.224 140 3
    endloop
  endfacet
  facet normal 1 -0 0
    outer loop
      vertex 285 263 45
      vertex 285 430 0
      vertex 285 430 45
    endloop
  endfacet
  facet normal 1 0 0
    outer loop
      vertex 285 430 0
      vertex 285 263 45
      vertex 285 263 0
    endloop
  endfacet
  facet normal 0 0 1
    outer loop
      vertex 285 430 45
      vertex 282 427 45
      vertex 285 263 45
    endloop
  endfacet
  facet normal 0 0 1
    outer loop
      vertex 285 430 45
      vertex 143 427 45
      vertex 282 427 45
    endloop
  endfacet
  facet normal 0 0 1
    outer loop
      vertex 143 427 45
      vertex 140 427 45
      vertex 143 266 45
    endloop
  endfacet
  facet normal 0 0 1
    outer loop
      vertex 285 430 45
      vertex 140 427 45
      vertex 143 427 45
    endloop
  endfacet
  facet normal -0 0 1
    outer loop
      vertex 0 430 45
      vertex 140 427 45
      vertex 285 430 45
    endloop
  endfacet
  facet normal 0 0 1
    outer loop
      vertex 73 427 45
      vertex 70 427 45
      vertex 73 266 45
    endloop
  endfacet
  facet normal 0 0 1
    outer loop
      vertex 140 427 45
      vertex 0 430 45
      vertex 73 427 45
    endloop
  endfacet
  facet normal 0 0 1
    outer loop
      vertex 73 427 45
      vertex 0 430 45
      vertex 70 427 45
    endloop
  endfacet
  facet normal 0 0 1
    outer loop
      vertex 3 427 45
      vertex 0 430 45
      vertex 3 266 45
    endloop
  endfacet
  facet normal 0 0 1
    outer loop
      vertex 70 427 45
      vertex 0 430 45
      vertex 3 427 45
    endloop
  endfacet
  facet normal -0 0 1
    outer loop
      vertex 282 266 45
      vertex 285 263 45
      vertex 282 427 45
    endloop
  endfacet
  facet normal -0 0 1
    outer loop
      vertex 143 266 45
      vertex 285 263 45
      vertex 282 266 45
    endloop
  endfacet
  facet normal 0 0 1
    outer loop
      vertex 140 266 45
      vertex 143 266 45
      vertex 140 427 45
    endloop
  endfacet
  facet normal -0 0 1
    outer loop
      vertex 140 266 45
      vertex 285 263 45
      vertex 143 266 45
    endloop
  endfacet
  facet normal 0 0 1
    outer loop
      vertex 0 263 45
      vertex 140 266 45
      vertex 73 266 45
    endloop
  endfacet
  facet normal 0 0 1
    outer loop
      vertex 70 266 45
      vertex 73 266 45
      vertex 70 427 45
    endloop
  endfacet
  facet normal 0 0 1
    outer loop
      vertex 0 263 45
      vertex 73 266 45
      vertex 70 266 45
    endloop
  endfacet
  facet normal 0 0 1
    outer loop
      vertex 0 263 45
      vertex 70 266 45
      vertex 3 266 45
    endloop
  endfacet
  facet normal 0 0 1
    outer loop
      vertex 140 266 45
      vertex 0 263 45
      vertex 285 263 45
    endloop
  endfacet
  facet normal 0 0 1
    outer loop
      vertex 0 263 45
      vertex 3 266 45
      vertex 0 430 45
    endloop
  endfacet
  facet normal 0 0 -1
    outer loop
      vertex 0 263 0
      vertex 285 430 0
      vertex 285 263 0
    endloop
  endfacet
  facet normal -0 0 -1
    outer loop
      vertex 285 430 0
      vertex 0 263 0
      vertex 0 430 0
    endloop
  endfacet
  facet normal -1 0 0
    outer loop
      vertex 0 263 0
      vertex 0 430 45
      vertex 0 430 0
    endloop
  endfacet
  facet normal -1 -0 0
    outer loop
      vertex 0 430 45
      vertex 0 263 0
      vertex 0 263 45
    endloop
  endfacet
  facet normal 0 1 -0
    outer loop
      vertex 285 430 0
      vertex 0 430 45
      vertex 285 430 45
    endloop
  endfacet
  facet normal 0 1 0
    outer loop
      vertex 0 430 45
      vertex 285 430 0
      vertex 0 430 0
    endloop
  endfacet
  facet normal 0 -1 0
    outer loop
      vertex 0 263 0
      vertex 285 263 45
      vertex 0 263 45
    endloop
  endfacet
  facet normal 0 -1 -0
    outer loop
      vertex 285 263 45
      vertex 0 263 0
      vertex 285 263 0
    endloop
  endfacet
  facet normal -1 0 0
    outer loop
      vertex 282 266 3
      vertex 282 427 45
      vertex 282 427 3
    endloop
  endfacet
  facet normal -1 -0 0
    outer loop
      vertex 282 427 45
      vertex 282 266 3
      vertex 282 266 45
    endloop
  endfacet
  facet normal -0 0 1
    outer loop
      vertex 143 427 3
      vertex 282 266 3
      vertex 282 427 3
    endloop
  endfacet
  facet normal 0 0 1
    outer loop
      vertex 282 266 3
      vertex 143 427 3
      vertex 143 266 3
    endloop
  endfacet
  facet normal -0 0 1
    outer loop
      vertex 3 427 3
      vertex 70 266 3
      vertex 70 427 3
    endloop
  endfacet
  facet normal 0 0 1
    outer loop
      vertex 70 266 3
      vertex 3 427 3
      vertex 3 266 3
    endloop
  endfacet
  facet normal -0 0 1
    outer loop
      vertex 73 427 3
      vertex 140 266 3
      vertex 140 427 3
    endloop
  endfacet
  facet normal 0 0 1
    outer loop
      vertex 140 266 3
      vertex 73 427 3
      vertex 73 266 3
    endloop
  endfacet
  facet normal 1 -0 0
    outer loop
      vertex 3 266 45
      vertex 3 427 3
      vertex 3 427 45
    endloop
  endfacet
  facet normal 1 0 0
    outer loop
      vertex 3 427 3
      vertex 3 266 45
      vertex 3 266 3
    endloop
  endfacet
  facet normal 0 -1 0
    outer loop
      vertex 143 427 3
      vertex 282 427 45
      vertex 143 427 45
    endloop
  endfacet
  facet normal 0 -1 -0
    outer loop
      vertex 282 427 45
      vertex 143 427 3
      vertex 282 427 3
    endloop
  endfacet
  facet normal 0 -1 0
    outer loop
      vertex 3 427 3
      vertex 70 427 45
      vertex 3 427 45
    endloop
  endfacet
  facet normal 0 -1 -0
    outer loop
      vertex 70 427 45
      vertex 3 427 3
      vertex 70 427 3
    endloop
  endfacet
  facet normal 0 -1 0
    outer loop
      vertex 73 427 3
      vertex 140 427 45
      vertex 73 427 45
    endloop
  endfacet
  facet normal 0 -1 -0
    outer loop
      vertex 140 427 45
      vertex 73 427 3
      vertex 140 427 3
    endloop
  endfacet
  facet normal 0 1 -0
    outer loop
      vertex 282 266 3
      vertex 143 266 45
      vertex 282 266 45
    endloop
  endfacet
  facet normal 0 1 0
    outer loop
      vertex 143 266 45
      vertex 282 266 3
      vertex 143 266 3
    endloop
  endfacet
  facet normal 0 1 -0
    outer loop
      vertex 70 266 3
      vertex 3 266 45
      vertex 70 266 45
    endloop
  endfacet
  facet normal 0 1 0
    outer loop
      vertex 3 266 45
      vertex 70 266 3
      vertex 3 266 3
    endloop
  endfacet
  facet normal 0 1 -0
    outer loop
      vertex 140 266 3
      vertex 73 266 45
      vertex 140 266 45
    endloop
  endfacet
  facet normal 0 1 0
    outer loop
      vertex 73 266 45
      vertex 140 266 3
      vertex 73 266 3
    endloop
  endfacet
  facet normal 1 -0 0
    outer loop
      vertex 73 266 45
      vertex 73 427 3
      vertex 73 427 45
    endloop
  endfacet
  facet normal 1 0 0
    outer loop
      vertex 73 427 3
      vertex 73 266 45
      vertex 73 266 3
    endloop
  endfacet
  facet normal -1 0 0
    outer loop
      vertex 70 266 3
      vertex 70 427 45
      vertex 70 427 3
    endloop
  endfacet
  facet normal -1 -0 0
    outer loop
      vertex 70 427 45
      vertex 70 266 3
      vertex 70 266 45
    endloop
  endfacet
  facet normal 1 -0 0
    outer loop
      vertex 143 266 45
      vertex 143 427 3
      vertex 143 427 45
    endloop
  endfacet
  facet normal 1 0 0
    outer loop
      vertex 143 427 3
      vertex 143 266 45
      vertex 143 266 3
    endloop
  endfacet
  facet normal -1 0 0
    outer loop
      vertex 140 266 3
      vertex 140 427 45
      vertex 140 427 3
    endloop
  endfacet
  facet normal -1 -0 0
    outer loop
      vertex 140 427 45
      vertex 140 266 3
      vertex 140 266 45
    endloop
  endfacet
endsolid OpenSCAD_Model
