solid OpenSCAD_Model
  facet normal 1 -0 0
    outer loop
      vertex 285 29 45
      vertex 285 260 0
      vertex 285 260 45
    endloop
  endfacet
  facet normal 1 0 0
    outer loop
      vertex 285 260 0
      vertex 285 29 45
      vertex 285 29 0
    endloop
  endfacet
  facet normal 0 0 1
    outer loop
      vertex 6.5 30 45
      vertex 5.5 29 45
      vertex 6.5 1 45
    endloop
  endfacet
  facet normal -0 0 1
    outer loop
      vertex 1 30 45
      vertex 5.5 29 45
      vertex 6.5 30 45
    endloop
  endfacet
  facet normal 0 0 1
    outer loop
      vertex 1 30 45
      vertex 0 29 45
      vertex 5.5 29 45
    endloop
  endfacet
  facet normal 0 0 1
    outer loop
      vertex 1 197 45
      vertex 0 29 45
      vertex 1 30 45
    endloop
  endfacet
  facet normal -0 0 1
    outer loop
      vertex 1 198 45
      vertex 67 197 45
      vertex 67 198 45
    endloop
  endfacet
  facet normal 0 0 1
    outer loop
      vertex 67 197 45
      vertex 1 198 45
      vertex 1 197 45
    endloop
  endfacet
  facet normal 0 0 1
    outer loop
      vertex 284 91 45
      vertex 215.923 90 45
      vertex 284 90 45
    endloop
  endfacet
  facet normal 0 -0 1
    outer loop
      vertex 215.923 90 45
      vertex 284 91 45
      vertex 215.729 91 45
    endloop
  endfacet
  facet normal -0 0 1
    outer loop
      vertex 176 181 45
      vertex 284 180 45
      vertex 284 181 45
    endloop
  endfacet
  facet normal 0 0 1
    outer loop
      vertex 284 180 45
      vertex 176 181 45
      vertex 176 180 45
    endloop
  endfacet
  facet normal 0 0 1
    outer loop
      vertex 284 181 45
      vertex 285 260 45
      vertex 284 259 45
    endloop
  endfacet
  facet normal 0 0 1
    outer loop
      vertex 285 260 45
      vertex 176 259 45
      vertex 284 259 45
    endloop
  endfacet
  facet normal 0 0 1
    outer loop
      vertex 175 181 45
      vertex 176 181 45
      vertex 176 259 45
    endloop
  endfacet
  facet normal 0 0 1
    outer loop
      vertex 176 181 45
      vertex 175 181 45
      vertex 176 180 45
    endloop
  endfacet
  facet normal 0 0 1
    outer loop
      vertex 175 181 45
      vertex 176 259 45
      vertex 175 259 45
    endloop
  endfacet
  facet normal 0 0 1
    outer loop
      vertex 285 260 45
      vertex 175 259 45
      vertex 176 259 45
    endloop
  endfacet
  facet normal 0 0 1
    outer loop
      vertex 285 260 45
      vertex 68 259 45
      vertex 175 259 45
    endloop
  endfacet
  facet normal -0 0 1
    outer loop
      vertex 67 198 45
      vertex 68 181 45
      vertex 68 259 45
    endloop
  endfacet
  facet normal -0 0 1
    outer loop
      vertex 67 197 45
      vertex 68 181 45
      vertex 67 198 45
    endloop
  endfacet
  facet normal 0 0 1
    outer loop
      vertex 68 180 45
      vertex 67 197 45
      vertex 68 79.7572 45
    endloop
  endfacet
  facet normal 0 0 1
    outer loop
      vertex 68 79.7572 45
      vertex 67 197 45
      vertex 68 75 45
    endloop
  endfacet
  facet normal 0 0 1
    outer loop
      vertex 67 198 45
      vertex 68 259 45
      vertex 67 259 45
    endloop
  endfacet
  facet normal -0 0 1
    outer loop
      vertex 0 260 45
      vertex 68 259 45
      vertex 285 260 45
    endloop
  endfacet
  facet normal 0 0 1
    outer loop
      vertex 68 259 45
      vertex 0 260 45
      vertex 67 259 45
    endloop
  endfacet
  facet normal 0 0 1
    outer loop
      vertex 0 260 45
      vertex 1 198 45
      vertex 1 259 45
    endloop
  endfacet
  facet normal 0 0 1
    outer loop
      vertex 1 198 45
      vertex 0 260 45
      vertex 1 197 45
    endloop
  endfacet
  facet normal 0 0 1
    outer loop
      vertex 0 29 45
      vertex 1 197 45
      vertex 0 260 45
    endloop
  endfacet
  facet normal 0 0 1
    outer loop
      vertex 67 259 45
      vertex 0 260 45
      vertex 1 259 45
    endloop
  endfacet
  facet normal 0 0 1
    outer loop
      vertex 285 260 45
      vertex 284 181 45
      vertex 285 29 45
    endloop
  endfacet
  facet normal -0 0 1
    outer loop
      vertex 284 180 45
      vertex 285 29 45
      vertex 284 181 45
    endloop
  endfacet
  facet normal -0 0 1
    outer loop
      vertex 284 91 45
      vertex 285 29 45
      vertex 284 180 45
    endloop
  endfacet
  facet normal -0 0 1
    outer loop
      vertex 284 90 45
      vertex 285 29 45
      vertex 284 91 45
    endloop
  endfacet
  facet normal -0 0 1
    outer loop
      vertex 284 30 45
      vertex 285 29 45
      vertex 284 90 45
    endloop
  endfacet
  facet normal 0 0 1
    outer loop
      vertex 284 30 45
      vertex 284 29 45
      vertex 285 29 45
    endloop
  endfacet
  facet normal 0 0 1
    outer loop
      vertex 284 30 45
      vertex 279.5 29 45
      vertex 284 29 45
    endloop
  endfacet
  facet normal -0 0 1
    outer loop
      vertex 278.5 30 45
      vertex 279.5 29 45
      vertex 284 30 45
    endloop
  endfacet
  facet normal 0 0 1
    outer loop
      vertex 278.5 1 45
      vertex 279.5 29 45
      vertex 278.5 30 45
    endloop
  endfacet
  facet normal 0 0 1
    outer loop
      vertex 279.5 29 45
      vertex 278.5 1 45
      vertex 279.5 0 45
    endloop
  endfacet
  facet normal -0 0 1
    outer loop
      vertex 153.111 1 45
      vertex 279.5 0 45
      vertex 278.5 1 45
    endloop
  endfacet
  facet normal 0 0 1
    outer loop
      vertex 142.5 1 45
      vertex 150.183 1.90264 45
      vertex 142.5 1.90264 45
    endloop
  endfacet
  facet normal 0 0 1
    outer loop
      vertex 150.183 1.90264 45
      vertex 142.5 1 45
      vertex 153.111 1 45
    endloop
  endfacet
  facet normal -0 0 1
    outer loop
      vertex 142.5 1 45
      vertex 279.5 0 45
      vertex 153.111 1 45
    endloop
  endfacet
  facet normal -0 0 1
    outer loop
      vertex 68 1 45
      vertex 279.5 0 45
      vertex 142.5 1 45
    endloop
  endfacet
  facet normal 0 0 1
    outer loop
      vertex 68 181 45
      vertex 67 197 45
      vertex 68 180 45
    endloop
  endfacet
  facet normal 0 0 1
    outer loop
      vertex 67 1 45
      vertex 68 75 45
      vertex 67 197 45
    endloop
  endfacet
  facet normal 0 0 1
    outer loop
      vertex 68 75 45
      vertex 67 1 45
      vertex 68 1 45
    endloop
  endfacet
  facet normal 0 0 1
    outer loop
      vertex 5.5 0 45
      vertex 68 1 45
      vertex 67 1 45
    endloop
  endfacet
  facet normal 0 0 1
    outer loop
      vertex 5.5 0 45
      vertex 67 1 45
      vertex 6.5 1 45
    endloop
  endfacet
  facet normal 0 0 1
    outer loop
      vertex 68 1 45
      vertex 5.5 0 45
      vertex 279.5 0 45
    endloop
  endfacet
  facet normal 0 0 1
    outer loop
      vertex 5.5 0 45
      vertex 6.5 1 45
      vertex 5.5 29 45
    endloop
  endfacet
  facet normal 0 0 1
    outer loop
      vertex 215.923 90 45
      vertex 216 75 45
      vertex 217.5 75 45
    endloop
  endfacet
  facet normal -0 0 1
    outer loop
      vertex 214.394 90.2815 45
      vertex 215.923 90 45
      vertex 215.729 91 45
    endloop
  endfacet
  facet normal 0 0 1
    outer loop
      vertex 215.923 90 45
      vertex 214.394 90.2815 45
      vertex 216 75 45
    endloop
  endfacet
  facet normal -0 0 1
    outer loop
      vertex 209.646 104.895 45
      vertex 215.729 91 45
      vertex 211.016 105.505 45
    endloop
  endfacet
  facet normal 0 0 1
    outer loop
      vertex 215.729 91 45
      vertex 209.646 104.895 45
      vertex 214.394 90.2815 45
    endloop
  endfacet
  facet normal 0 0 1
    outer loop
      vertex 203.176 119.084 45
      vertex 209.646 104.895 45
      vertex 211.016 105.505 45
    endloop
  endfacet
  facet normal 0 0 1
    outer loop
      vertex 203.176 119.084 45
      vertex 201.963 118.202 45
      vertex 209.646 104.895 45
    endloop
  endfacet
  facet normal 0 0 1
    outer loop
      vertex 192.685 130.736 45
      vertex 201.963 118.202 45
      vertex 203.176 119.084 45
    endloop
  endfacet
  facet normal 0 0 1
    outer loop
      vertex 192.685 130.736 45
      vertex 191.681 129.621 45
      vertex 201.963 118.202 45
    endloop
  endfacet
  facet normal 0 0 1
    outer loop
      vertex 180 139.952 45
      vertex 191.681 129.621 45
      vertex 192.685 130.736 45
    endloop
  endfacet
  facet normal 0 0 1
    outer loop
      vertex 180 139.952 45
      vertex 179.25 138.653 45
      vertex 191.681 129.621 45
    endloop
  endfacet
  facet normal 0 0 1
    outer loop
      vertex 176 141.733 45
      vertex 179.25 138.653 45
      vertex 180 139.952 45
    endloop
  endfacet
  facet normal 0 0 1
    outer loop
      vertex 175 180 45
      vertex 176 180 45
      vertex 175 181 45
    endloop
  endfacet
  facet normal 0 0 1
    outer loop
      vertex 175 142.178 45
      vertex 176 180 45
      vertex 175 180 45
    endloop
  endfacet
  facet normal 0 0 1
    outer loop
      vertex 176 180 45
      vertex 175 142.178 45
      vertex 176 141.733 45
    endloop
  endfacet
  facet normal 0 0 1
    outer loop
      vertex 175 142.178 45
      vertex 179.25 138.653 45
      vertex 176 141.733 45
    endloop
  endfacet
  facet normal -0 0 1
    outer loop
      vertex 165.213 144.903 45
      vertex 175 142.178 45
      vertex 165.676 146.329 45
    endloop
  endfacet
  facet normal 0 0 1
    outer loop
      vertex 175 142.178 45
      vertex 165.213 144.903 45
      vertex 179.25 138.653 45
    endloop
  endfacet
  facet normal 0 0 1
    outer loop
      vertex 150.34 149.589 45
      vertex 165.213 144.903 45
      vertex 165.676 146.329 45
    endloop
  endfacet
  facet normal 0 0 1
    outer loop
      vertex 150.34 149.589 45
      vertex 150.183 148.097 45
      vertex 165.213 144.903 45
    endloop
  endfacet
  facet normal 0 0 1
    outer loop
      vertex 150.34 149.589 45
      vertex 134.817 148.097 45
      vertex 150.183 148.097 45
    endloop
  endfacet
  facet normal -0 0 1
    outer loop
      vertex 134.66 149.589 45
      vertex 134.817 148.097 45
      vertex 150.34 149.589 45
    endloop
  endfacet
  facet normal 0 0 1
    outer loop
      vertex 134.66 149.589 45
      vertex 119.787 144.903 45
      vertex 134.817 148.097 45
    endloop
  endfacet
  facet normal -0 0 1
    outer loop
      vertex 119.324 146.329 45
      vertex 119.787 144.903 45
      vertex 134.66 149.589 45
    endloop
  endfacet
  facet normal 0 0 1
    outer loop
      vertex 119.324 146.329 45
      vertex 105.75 138.653 45
      vertex 119.787 144.903 45
    endloop
  endfacet
  facet normal -0 0 1
    outer loop
      vertex 105 139.952 45
      vertex 105.75 138.653 45
      vertex 119.324 146.329 45
    endloop
  endfacet
  facet normal 0 0 1
    outer loop
      vertex 105 139.952 45
      vertex 93.3189 129.621 45
      vertex 105.75 138.653 45
    endloop
  endfacet
  facet normal -0 0 1
    outer loop
      vertex 92.3152 130.736 45
      vertex 93.3189 129.621 45
      vertex 105 139.952 45
    endloop
  endfacet
  facet normal 0 0 1
    outer loop
      vertex 92.3152 130.736 45
      vertex 83.0373 118.202 45
      vertex 93.3189 129.621 45
    endloop
  endfacet
  facet normal -0 0 1
    outer loop
      vertex 81.8237 119.084 45
      vertex 83.0373 118.202 45
      vertex 92.3152 130.736 45
    endloop
  endfacet
  facet normal 0 0 1
    outer loop
      vertex 81.8237 119.084 45
      vertex 75.3544 104.895 45
      vertex 83.0373 118.202 45
    endloop
  endfacet
  facet normal -0 0 1
    outer loop
      vertex 73.9841 105.505 45
      vertex 75.3544 104.895 45
      vertex 81.8237 119.084 45
    endloop
  endfacet
  facet normal 0 0 1
    outer loop
      vertex 73.9841 105.505 45
      vertex 70.6062 90.2815 45
      vertex 75.3544 104.895 45
    endloop
  endfacet
  facet normal -0 0 1
    outer loop
      vertex 69.1389 90.5934 45
      vertex 70.6062 90.2815 45
      vertex 73.9841 105.505 45
    endloop
  endfacet
  facet normal 0 0 1
    outer loop
      vertex 68 79.7572 45
      vertex 70.6062 90.2815 45
      vertex 69.1389 90.5934 45
    endloop
  endfacet
  facet normal 0 0 1
    outer loop
      vertex 70.6062 90.2815 45
      vertex 68 79.7572 45
      vertex 69 75 45
    endloop
  endfacet
  facet normal 0 0 1
    outer loop
      vertex 69 75 45
      vertex 68 79.7572 45
      vertex 68 75 45
    endloop
  endfacet
  facet normal -0 0 1
    outer loop
      vertex 216 75 45
      vertex 215.861 59.4066 45
      vertex 217.5 75 45
    endloop
  endfacet
  facet normal -0 0 1
    outer loop
      vertex 214.394 59.7185 45
      vertex 215.861 59.4066 45
      vertex 216 75 45
    endloop
  endfacet
  facet normal 0 0 1
    outer loop
      vertex 214.394 59.7185 45
      vertex 211.016 44.4948 45
      vertex 215.861 59.4066 45
    endloop
  endfacet
  facet normal -0 0 1
    outer loop
      vertex 209.646 45.1049 45
      vertex 211.016 44.4948 45
      vertex 214.394 59.7185 45
    endloop
  endfacet
  facet normal 0 0 1
    outer loop
      vertex 209.646 45.1049 45
      vertex 203.176 30.9161 45
      vertex 211.016 44.4948 45
    endloop
  endfacet
  facet normal -0 0 1
    outer loop
      vertex 201.963 31.7978 45
      vertex 203.176 30.9161 45
      vertex 209.646 45.1049 45
    endloop
  endfacet
  facet normal 0 0 1
    outer loop
      vertex 201.963 31.7978 45
      vertex 192.685 19.2641 45
      vertex 203.176 30.9161 45
    endloop
  endfacet
  facet normal -0 0 1
    outer loop
      vertex 191.681 20.3789 45
      vertex 192.685 19.2641 45
      vertex 201.963 31.7978 45
    endloop
  endfacet
  facet normal 0 0 1
    outer loop
      vertex 191.681 20.3789 45
      vertex 180 10.0481 45
      vertex 192.685 19.2641 45
    endloop
  endfacet
  facet normal -0 0 1
    outer loop
      vertex 179.25 11.3471 45
      vertex 180 10.0481 45
      vertex 191.681 20.3789 45
    endloop
  endfacet
  facet normal 0 0 1
    outer loop
      vertex 179.25 11.3471 45
      vertex 165.676 3.67076 45
      vertex 180 10.0481 45
    endloop
  endfacet
  facet normal -0 0 1
    outer loop
      vertex 165.213 5.09735 45
      vertex 165.676 3.67076 45
      vertex 179.25 11.3471 45
    endloop
  endfacet
  facet normal 0 0 1
    outer loop
      vertex 165.213 5.09735 45
      vertex 153.111 1 45
      vertex 165.676 3.67076 45
    endloop
  endfacet
  facet normal 0 -0 1
    outer loop
      vertex 153.111 1 45
      vertex 165.213 5.09735 45
      vertex 150.183 1.90264 45
    endloop
  endfacet
  facet normal -0 0 1
    outer loop
      vertex 68 181 45
      vertex 175 180 45
      vertex 175 181 45
    endloop
  endfacet
  facet normal 0 0 1
    outer loop
      vertex 175 180 45
      vertex 68 181 45
      vertex 68 180 45
    endloop
  endfacet
  facet normal 0 0 -1
    outer loop
      vertex 279.5 0 0
      vertex 5.5 0 0
      vertex 279.5 29 0
    endloop
  endfacet
  facet normal 0 0 -1
    outer loop
      vertex 284 29 0
      vertex 285 260 0
      vertex 285 29 0
    endloop
  endfacet
  facet normal 0 0 -1
    outer loop
      vertex 279.5 29 0
      vertex 285 260 0
      vertex 284 29 0
    endloop
  endfacet
  facet normal 0 0 -1
    outer loop
      vertex 5.5 29 0
      vertex 279.5 29 0
      vertex 5.5 0 0
    endloop
  endfacet
  facet normal 0 0 -1
    outer loop
      vertex 279.5 29 0
      vertex 5.5 29 0
      vertex 285 260 0
    endloop
  endfacet
  facet normal 0 0 -1
    outer loop
      vertex 0 260 0
      vertex 5.5 29 0
      vertex 0 29 0
    endloop
  endfacet
  facet normal 0 0 -1
    outer loop
      vertex 5.5 29 0
      vertex 0 260 0
      vertex 285 260 0
    endloop
  endfacet
  facet normal -1 0 0
    outer loop
      vertex 0 29 0
      vertex 0 260 45
      vertex 0 260 0
    endloop
  endfacet
  facet normal -1 -0 0
    outer loop
      vertex 0 260 45
      vertex 0 29 0
      vertex 0 29 45
    endloop
  endfacet
  facet normal 0 1 -0
    outer loop
      vertex 285 260 0
      vertex 0 260 45
      vertex 285 260 45
    endloop
  endfacet
  facet normal 0 1 0
    outer loop
      vertex 0 260 45
      vertex 285 260 0
      vertex 0 260 0
    endloop
  endfacet
  facet normal 0 -1 0
    outer loop
      vertex 5.5 0 0
      vertex 279.5 0 45
      vertex 5.5 0 45
    endloop
  endfacet
  facet normal 0 -1 -0
    outer loop
      vertex 279.5 0 45
      vertex 5.5 0 0
      vertex 279.5 0 0
    endloop
  endfacet
  facet normal -1 0 0
    outer loop
      vertex 284 181 1
      vertex 284 259 45
      vertex 284 259 1
    endloop
  endfacet
  facet normal -1 -0 0
    outer loop
      vertex 284 259 45
      vertex 284 181 1
      vertex 284 181 45
    endloop
  endfacet
  facet normal -1 0 0
    outer loop
      vertex 284 91 1
      vertex 284 180 45
      vertex 284 180 1
    endloop
  endfacet
  facet normal -1 -0 0
    outer loop
      vertex 284 180 45
      vertex 284 91 1
      vertex 284 91 45
    endloop
  endfacet
  facet normal -1 0 0
    outer loop
      vertex 284 30 1
      vertex 284 90 45
      vertex 284 90 1
    endloop
  endfacet
  facet normal -1 -0 0
    outer loop
      vertex 284 90 45
      vertex 284 30 1
      vertex 284 30 45
    endloop
  endfacet
  facet normal -0 0 1
    outer loop
      vertex 176 259 1
      vertex 284 181 1
      vertex 284 259 1
    endloop
  endfacet
  facet normal 0 0 1
    outer loop
      vertex 284 181 1
      vertex 176 259 1
      vertex 176 181 1
    endloop
  endfacet
  facet normal -0 0 1
    outer loop
      vertex 1 259 1
      vertex 67 198 1
      vertex 67 259 1
    endloop
  endfacet
  facet normal 0 0 1
    outer loop
      vertex 67 198 1
      vertex 1 259 1
      vertex 1 198 1
    endloop
  endfacet
  facet normal 0 0 1
    outer loop
      vertex 284 90 1
      vertex 278.5 30 1
      vertex 284 30 1
    endloop
  endfacet
  facet normal 0 0 1
    outer loop
      vertex 284 90 1
      vertex 215.861 59.4066 1
      vertex 278.5 30 1
    endloop
  endfacet
  facet normal 0 0 1
    outer loop
      vertex 215.861 59.4066 1
      vertex 284 90 1
      vertex 217.5 75 1
    endloop
  endfacet
  facet normal 0 -0 1
    outer loop
      vertex 217.5 75 1
      vertex 284 90 1
      vertex 215.923 90 1
    endloop
  endfacet
  facet normal -0 0 1
    outer loop
      vertex 211.016 44.4948 1
      vertex 278.5 30 1
      vertex 215.861 59.4066 1
    endloop
  endfacet
  facet normal -0 0 1
    outer loop
      vertex 203.176 30.9161 1
      vertex 278.5 30 1
      vertex 211.016 44.4948 1
    endloop
  endfacet
  facet normal 0 0 1
    outer loop
      vertex 278.5 30 1
      vertex 203.176 30.9161 1
      vertex 278.5 1 1
    endloop
  endfacet
  facet normal -0 0 1
    outer loop
      vertex 192.685 19.2641 1
      vertex 278.5 1 1
      vertex 203.176 30.9161 1
    endloop
  endfacet
  facet normal -0 0 1
    outer loop
      vertex 180 10.0481 1
      vertex 278.5 1 1
      vertex 192.685 19.2641 1
    endloop
  endfacet
  facet normal -0 0 1
    outer loop
      vertex 165.676 3.67076 1
      vertex 278.5 1 1
      vertex 180 10.0481 1
    endloop
  endfacet
  facet normal 0 0 1
    outer loop
      vertex 278.5 1 1
      vertex 165.676 3.67076 1
      vertex 153.111 1 1
    endloop
  endfacet
  facet normal -0 0 1
    outer loop
      vertex 68 259 1
      vertex 175 181 1
      vertex 175 259 1
    endloop
  endfacet
  facet normal 0 0 1
    outer loop
      vertex 175 181 1
      vertex 68 259 1
      vertex 68 181 1
    endloop
  endfacet
  facet normal 0 0 1
    outer loop
      vertex 67 197 1
      vertex 6.5 30 1
      vertex 67 1 1
    endloop
  endfacet
  facet normal -0 0 1
    outer loop
      vertex 1 197 1
      vertex 6.5 30 1
      vertex 67 197 1
    endloop
  endfacet
  facet normal 0 0 1
    outer loop
      vertex 6.5 30 1
      vertex 1 197 1
      vertex 1 30 1
    endloop
  endfacet
  facet normal 0 0 1
    outer loop
      vertex 67 1 1
      vertex 6.5 30 1
      vertex 6.5 1 1
    endloop
  endfacet
  facet normal 0 0 1
    outer loop
      vertex 214.394 90.2815 1
      vertex 214.394 59.7185 1
      vertex 216 75 1
    endloop
  endfacet
  facet normal 0 0 1
    outer loop
      vertex 209.646 104.895 1
      vertex 214.394 59.7185 1
      vertex 214.394 90.2815 1
    endloop
  endfacet
  facet normal 0 0 1
    outer loop
      vertex 209.646 104.895 1
      vertex 209.646 45.1049 1
      vertex 214.394 59.7185 1
    endloop
  endfacet
  facet normal 0 0 1
    outer loop
      vertex 201.963 118.202 1
      vertex 209.646 45.1049 1
      vertex 209.646 104.895 1
    endloop
  endfacet
  facet normal 0 0 1
    outer loop
      vertex 201.963 118.202 1
      vertex 201.963 31.7978 1
      vertex 209.646 45.1049 1
    endloop
  endfacet
  facet normal 0 0 1
    outer loop
      vertex 191.681 129.621 1
      vertex 201.963 31.7978 1
      vertex 201.963 118.202 1
    endloop
  endfacet
  facet normal 0 0 1
    outer loop
      vertex 191.681 129.621 1
      vertex 191.681 20.3789 1
      vertex 201.963 31.7978 1
    endloop
  endfacet
  facet normal 0 0 1
    outer loop
      vertex 179.25 138.653 1
      vertex 191.681 20.3789 1
      vertex 191.681 129.621 1
    endloop
  endfacet
  facet normal 0 0 1
    outer loop
      vertex 179.25 138.653 1
      vertex 179.25 11.3471 1
      vertex 191.681 20.3789 1
    endloop
  endfacet
  facet normal 0 0 1
    outer loop
      vertex 165.213 144.903 1
      vertex 179.25 11.3471 1
      vertex 179.25 138.653 1
    endloop
  endfacet
  facet normal 0 0 1
    outer loop
      vertex 142.5 1.90264 1
      vertex 179.25 11.3471 1
      vertex 165.213 144.903 1
    endloop
  endfacet
  facet normal 0 0 1
    outer loop
      vertex 142.5 1.90264 1
      vertex 165.213 144.903 1
      vertex 150.183 148.097 1
    endloop
  endfacet
  facet normal 0 0 1
    outer loop
      vertex 179.25 11.3471 1
      vertex 142.5 1.90264 1
      vertex 165.213 5.09735 1
    endloop
  endfacet
  facet normal 0 0 1
    outer loop
      vertex 165.213 5.09735 1
      vertex 142.5 1.90264 1
      vertex 150.183 1.90264 1
    endloop
  endfacet
  facet normal -0 0 1
    outer loop
      vertex 134.817 148.097 1
      vertex 142.5 1.90264 1
      vertex 150.183 148.097 1
    endloop
  endfacet
  facet normal -0 0 1
    outer loop
      vertex 119.787 144.903 1
      vertex 142.5 1.90264 1
      vertex 134.817 148.097 1
    endloop
  endfacet
  facet normal -0 0 1
    outer loop
      vertex 105.75 138.653 1
      vertex 142.5 1.90264 1
      vertex 119.787 144.903 1
    endloop
  endfacet
  facet normal -0 0 1
    outer loop
      vertex 93.3189 129.621 1
      vertex 142.5 1.90264 1
      vertex 105.75 138.653 1
    endloop
  endfacet
  facet normal -0 0 1
    outer loop
      vertex 83.0373 118.202 1
      vertex 142.5 1.90264 1
      vertex 93.3189 129.621 1
    endloop
  endfacet
  facet normal -0 0 1
    outer loop
      vertex 75.3544 104.895 1
      vertex 142.5 1.90264 1
      vertex 83.0373 118.202 1
    endloop
  endfacet
  facet normal -0 0 1
    outer loop
      vertex 70.6062 90.2815 1
      vertex 142.5 1.90264 1
      vertex 75.3544 104.895 1
    endloop
  endfacet
  facet normal -0 0 1
    outer loop
      vertex 69 75 1
      vertex 142.5 1.90264 1
      vertex 70.6062 90.2815 1
    endloop
  endfacet
  facet normal 0 0 1
    outer loop
      vertex 68 1 1
      vertex 142.5 1.90264 1
      vertex 69 75 1
    endloop
  endfacet
  facet normal 0 0 1
    outer loop
      vertex 68 1 1
      vertex 69 75 1
      vertex 68 75 1
    endloop
  endfacet
  facet normal 0 0 1
    outer loop
      vertex 142.5 1.90264 1
      vertex 68 1 1
      vertex 142.5 1 1
    endloop
  endfacet
  facet normal -0 0 1
    outer loop
      vertex 211.016 105.505 1
      vertex 284 91 1
      vertex 284 180 1
    endloop
  endfacet
  facet normal 0 0 1
    outer loop
      vertex 284 91 1
      vertex 211.016 105.505 1
      vertex 215.729 91 1
    endloop
  endfacet
  facet normal 0 0 1
    outer loop
      vertex 284 180 1
      vertex 203.176 119.084 1
      vertex 211.016 105.505 1
    endloop
  endfacet
  facet normal 0 0 1
    outer loop
      vertex 284 180 1
      vertex 192.685 130.736 1
      vertex 203.176 119.084 1
    endloop
  endfacet
  facet normal -0 0 1
    outer loop
      vertex 176 180 1
      vertex 192.685 130.736 1
      vertex 284 180 1
    endloop
  endfacet
  facet normal 0 0 1
    outer loop
      vertex 192.685 130.736 1
      vertex 176 180 1
      vertex 180 139.952 1
    endloop
  endfacet
  facet normal 0 0 1
    outer loop
      vertex 180 139.952 1
      vertex 176 180 1
      vertex 176 141.733 1
    endloop
  endfacet
  facet normal 0 0 1
    outer loop
      vertex 175 180 1
      vertex 165.676 146.329 1
      vertex 175 142.178 1
    endloop
  endfacet
  facet normal 0 0 1
    outer loop
      vertex 175 180 1
      vertex 150.34 149.589 1
      vertex 165.676 146.329 1
    endloop
  endfacet
  facet normal 0 0 1
    outer loop
      vertex 175 180 1
      vertex 134.66 149.589 1
      vertex 150.34 149.589 1
    endloop
  endfacet
  facet normal -0 0 1
    outer loop
      vertex 68 180 1
      vertex 134.66 149.589 1
      vertex 175 180 1
    endloop
  endfacet
  facet normal 0 0 1
    outer loop
      vertex 134.66 149.589 1
      vertex 68 180 1
      vertex 119.324 146.329 1
    endloop
  endfacet
  facet normal 0 0 1
    outer loop
      vertex 119.324 146.329 1
      vertex 68 180 1
      vertex 105 139.952 1
    endloop
  endfacet
  facet normal 0 0 1
    outer loop
      vertex 68 180 1
      vertex 92.3152 130.736 1
      vertex 105 139.952 1
    endloop
  endfacet
  facet normal 0 0 1
    outer loop
      vertex 68 180 1
      vertex 81.8237 119.084 1
      vertex 92.3152 130.736 1
    endloop
  endfacet
  facet normal 0 0 1
    outer loop
      vertex 68 180 1
      vertex 73.9841 105.505 1
      vertex 81.8237 119.084 1
    endloop
  endfacet
  facet normal 0 0 1
    outer loop
      vertex 68 180 1
      vertex 69.1389 90.5934 1
      vertex 73.9841 105.505 1
    endloop
  endfacet
  facet normal 0 0 1
    outer loop
      vertex 69.1389 90.5934 1
      vertex 68 180 1
      vertex 68 79.7572 1
    endloop
  endfacet
  facet normal 1 -0 0
    outer loop
      vertex 1 198 45
      vertex 1 259 1
      vertex 1 259 45
    endloop
  endfacet
  facet normal 1 0 0
    outer loop
      vertex 1 259 1
      vertex 1 198 45
      vertex 1 198 1
    endloop
  endfacet
  facet normal 1 -0 0
    outer loop
      vertex 1 30 45
      vertex 1 197 1
      vertex 1 197 45
    endloop
  endfacet
  facet normal 1 0 0
    outer loop
      vertex 1 197 1
      vertex 1 30 45
      vertex 1 30 1
    endloop
  endfacet
  facet normal 0 -1 0
    outer loop
      vertex 176 259 1
      vertex 284 259 45
      vertex 176 259 45
    endloop
  endfacet
  facet normal 0 -1 -0
    outer loop
      vertex 284 259 45
      vertex 176 259 1
      vertex 284 259 1
    endloop
  endfacet
  facet normal 0 -1 0
    outer loop
      vertex 1 259 1
      vertex 67 259 45
      vertex 1 259 45
    endloop
  endfacet
  facet normal 0 -1 -0
    outer loop
      vertex 67 259 45
      vertex 1 259 1
      vertex 67 259 1
    endloop
  endfacet
  facet normal 0 -1 0
    outer loop
      vertex 68 259 1
      vertex 175 259 45
      vertex 68 259 45
    endloop
  endfacet
  facet normal 0 -1 -0
    outer loop
      vertex 175 259 45
      vertex 68 259 1
      vertex 175 259 1
    endloop
  endfacet
  facet normal 0 1 -0
    outer loop
      vertex 67 1 1
      vertex 6.5 1 45
      vertex 67 1 45
    endloop
  endfacet
  facet normal 0 1 0
    outer loop
      vertex 6.5 1 45
      vertex 67 1 1
      vertex 6.5 1 1
    endloop
  endfacet
  facet normal 0 1 -0
    outer loop
      vertex 142.5 1 1
      vertex 68 1 45
      vertex 142.5 1 45
    endloop
  endfacet
  facet normal 0 1 0
    outer loop
      vertex 68 1 45
      vertex 142.5 1 1
      vertex 68 1 1
    endloop
  endfacet
  facet normal 0 1 -0
    outer loop
      vertex 278.5 1 1
      vertex 153.111 1 45
      vertex 278.5 1 45
    endloop
  endfacet
  facet normal 0 1 0
    outer loop
      vertex 153.111 1 45
      vertex 278.5 1 1
      vertex 153.111 1 1
    endloop
  endfacet
  facet normal -1 0 0
    outer loop
      vertex 5.5 0 0
      vertex 5.5 29 45
      vertex 5.5 29 0
    endloop
  endfacet
  facet normal -1 -0 0
    outer loop
      vertex 5.5 29 45
      vertex 5.5 0 0
      vertex 5.5 0 45
    endloop
  endfacet
  facet normal 0 -1 0
    outer loop
      vertex 0 29 0
      vertex 5.5 29 45
      vertex 0 29 45
    endloop
  endfacet
  facet normal 0 -1 -0
    outer loop
      vertex 5.5 29 45
      vertex 0 29 0
      vertex 5.5 29 0
    endloop
  endfacet
  facet normal 1 -0 0
    outer loop
      vertex 279.5 0 45
      vertex 279.5 29 0
      vertex 279.5 29 45
    endloop
  endfacet
  facet normal 1 0 0
    outer loop
      vertex 279.5 29 0
      vertex 279.5 0 45
      vertex 279.5 0 0
    endloop
  endfacet
  facet normal 0 -1 0
    outer loop
      vertex 284 29 0
      vertex 285 29 45
      vertex 284 29 45
    endloop
  endfacet
  facet normal 0 -1 -0
    outer loop
      vertex 285 29 45
      vertex 284 29 0
      vertex 285 29 0
    endloop
  endfacet
  facet normal 0 -1 0
    outer loop
      vertex 279.5 29 0
      vertex 284 29 45
      vertex 279.5 29 45
    endloop
  endfacet
  facet normal 0 -1 -0
    outer loop
      vertex 284 29 45
      vertex 279.5 29 0
      vertex 284 29 0
    endloop
  endfacet
  facet normal 0.951056 0.309019 -3.21545e-18
    outer loop
      vertex 215.729 91 45
      vertex 211.016 105.505 1
      vertex 211.016 105.505 45
    endloop
  endfacet
  facet normal 0.951056 0.309019 -3.21545e-18
    outer loop
      vertex 211.016 105.505 1
      vertex 215.729 91 45
      vertex 215.729 91 1
    endloop
  endfacet
  facet normal 0.994519 0.104557 0
    outer loop
      vertex 217.5 75 45
      vertex 215.923 90 1
      vertex 215.923 90 45
    endloop
  endfacet
  facet normal 0.994519 0.104557 0
    outer loop
      vertex 215.923 90 1
      vertex 217.5 75 45
      vertex 217.5 75 1
    endloop
  endfacet
  facet normal 0.994521 -0.104533 6.54084e-19
    outer loop
      vertex 215.861 59.4066 45
      vertex 217.5 75 1
      vertex 217.5 75 45
    endloop
  endfacet
  facet normal 0.994521 -0.104533 6.54084e-19
    outer loop
      vertex 217.5 75 1
      vertex 215.861 59.4066 45
      vertex 215.861 59.4066 1
    endloop
  endfacet
  facet normal 0.406711 0.913557 -0
    outer loop
      vertex 175 142.178 1
      vertex 165.676 146.329 45
      vertex 175 142.178 45
    endloop
  endfacet
  facet normal 0.406711 0.913557 0
    outer loop
      vertex 165.676 146.329 45
      vertex 175 142.178 1
      vertex 165.676 146.329 1
    endloop
  endfacet
  facet normal 0.406753 0.913538 -0
    outer loop
      vertex 180 139.952 1
      vertex 176 141.733 45
      vertex 180 139.952 45
    endloop
  endfacet
  facet normal 0.406753 0.913538 0
    outer loop
      vertex 176 141.733 45
      vertex 180 139.952 1
      vertex 176 141.733 1
    endloop
  endfacet
  facet normal 0.40673 -0.913548 0
    outer loop
      vertex 165.676 3.67076 1
      vertex 180 10.0481 45
      vertex 165.676 3.67076 45
    endloop
  endfacet
  facet normal 0.40673 -0.913548 0
    outer loop
      vertex 180 10.0481 45
      vertex 165.676 3.67076 1
      vertex 180 10.0481 1
    endloop
  endfacet
  facet normal -0.587783 0.809018 0
    outer loop
      vertex 105 139.952 1
      vertex 92.3152 130.736 45
      vertex 105 139.952 45
    endloop
  endfacet
  facet normal -0.587783 0.809018 0
    outer loop
      vertex 92.3152 130.736 45
      vertex 105 139.952 1
      vertex 92.3152 130.736 1
    endloop
  endfacet
  facet normal -0.207926 0.978145 0
    outer loop
      vertex 134.66 149.589 1
      vertex 119.324 146.329 45
      vertex 134.66 149.589 45
    endloop
  endfacet
  facet normal -0.207926 0.978145 0
    outer loop
      vertex 119.324 146.329 45
      vertex 134.66 149.589 1
      vertex 119.324 146.329 1
    endloop
  endfacet
  facet normal -0.743145 0.66913 1.00499e-17
    outer loop
      vertex 81.8237 119.084 1
      vertex 92.3152 130.736 45
      vertex 92.3152 130.736 1
    endloop
  endfacet
  facet normal -0.743145 0.66913 1.00499e-17
    outer loop
      vertex 92.3152 130.736 45
      vertex 81.8237 119.084 1
      vertex 81.8237 119.084 45
    endloop
  endfacet
  facet normal -0.951054 0.309024 8.71284e-18
    outer loop
      vertex 69.1389 90.5934 1
      vertex 73.9841 105.505 45
      vertex 73.9841 105.505 1
    endloop
  endfacet
  facet normal -0.951054 0.309024 8.71284e-18
    outer loop
      vertex 73.9841 105.505 45
      vertex 69.1389 90.5934 1
      vertex 69.1389 90.5934 45
    endloop
  endfacet
  facet normal 0.743161 -0.669113 6.16641e-18
    outer loop
      vertex 192.685 19.2641 45
      vertex 203.176 30.9161 1
      vertex 203.176 30.9161 45
    endloop
  endfacet
  facet normal 0.743161 -0.669113 6.16641e-18
    outer loop
      vertex 203.176 30.9161 1
      vertex 192.685 19.2641 45
      vertex 192.685 19.2641 1
    endloop
  endfacet
  facet normal 0.866016 -0.500016 -2.08275e-18
    outer loop
      vertex 203.176 30.9161 45
      vertex 211.016 44.4948 1
      vertex 211.016 44.4948 45
    endloop
  endfacet
  facet normal 0.866016 -0.500016 -2.08275e-18
    outer loop
      vertex 211.016 44.4948 1
      vertex 203.176 30.9161 45
      vertex 203.176 30.9161 1
    endloop
  endfacet
  facet normal 0.587777 -0.809023 0
    outer loop
      vertex 180 10.0481 1
      vertex 192.685 19.2641 45
      vertex 180 10.0481 45
    endloop
  endfacet
  facet normal 0.587777 -0.809023 0
    outer loop
      vertex 192.685 19.2641 45
      vertex 180 10.0481 1
      vertex 192.685 19.2641 1
    endloop
  endfacet
  facet normal 0 1 -0
    outer loop
      vertex 150.34 149.589 1
      vertex 134.66 149.589 45
      vertex 150.34 149.589 45
    endloop
  endfacet
  facet normal 0 1 0
    outer loop
      vertex 134.66 149.589 45
      vertex 150.34 149.589 1
      vertex 134.66 149.589 1
    endloop
  endfacet
  facet normal 0.951059 -0.309009 -2.9445e-18
    outer loop
      vertex 211.016 44.4948 45
      vertex 215.861 59.4066 1
      vertex 215.861 59.4066 45
    endloop
  endfacet
  facet normal 0.951059 -0.309009 -2.9445e-18
    outer loop
      vertex 215.861 59.4066 1
      vertex 211.016 44.4948 45
      vertex 211.016 44.4948 1
    endloop
  endfacet
  facet normal 0.587777 0.809023 -0
    outer loop
      vertex 192.685 130.736 1
      vertex 180 139.952 45
      vertex 192.685 130.736 45
    endloop
  endfacet
  facet normal 0.587777 0.809023 0
    outer loop
      vertex 180 139.952 45
      vertex 192.685 130.736 1
      vertex 180 139.952 1
    endloop
  endfacet
  facet normal -0.406712 0.913556 0
    outer loop
      vertex 119.324 146.329 1
      vertex 105 139.952 45
      vertex 119.324 146.329 45
    endloop
  endfacet
  facet normal -0.406712 0.913556 0
    outer loop
      vertex 105 139.952 45
      vertex 119.324 146.329 1
      vertex 105 139.952 1
    endloop
  endfacet
  facet normal 0.743161 0.669113 3.94779e-18
    outer loop
      vertex 203.176 119.084 45
      vertex 192.685 130.736 1
      vertex 192.685 130.736 45
    endloop
  endfacet
  facet normal 0.743161 0.669113 3.94779e-18
    outer loop
      vertex 192.685 130.736 1
      vertex 203.176 119.084 45
      vertex 203.176 119.084 1
    endloop
  endfacet
  facet normal 0.866021 0.500008 -5.3341e-18
    outer loop
      vertex 211.016 105.505 45
      vertex 203.176 119.084 1
      vertex 203.176 119.084 45
    endloop
  endfacet
  facet normal 0.866021 0.500008 -5.3341e-18
    outer loop
      vertex 203.176 119.084 1
      vertex 211.016 105.505 45
      vertex 211.016 105.505 1
    endloop
  endfacet
  facet normal 0.207911 -0.978148 0
    outer loop
      vertex 153.111 1 1
      vertex 165.676 3.67076 45
      vertex 153.111 1 45
    endloop
  endfacet
  facet normal 0.207911 -0.978148 0
    outer loop
      vertex 165.676 3.67076 45
      vertex 153.111 1 1
      vertex 165.676 3.67076 1
    endloop
  endfacet
  facet normal -0.994522 0.104526 -1.06567e-18
    outer loop
      vertex 68 79.7572 1
      vertex 69.1389 90.5934 45
      vertex 69.1389 90.5934 1
    endloop
  endfacet
  facet normal -0.994522 0.104526 -1.06567e-18
    outer loop
      vertex 69.1389 90.5934 45
      vertex 68 79.7572 1
      vertex 68 79.7572 45
    endloop
  endfacet
  facet normal 0.207926 0.978145 -0
    outer loop
      vertex 165.676 146.329 1
      vertex 150.34 149.589 45
      vertex 165.676 146.329 45
    endloop
  endfacet
  facet normal 0.207926 0.978145 0
    outer loop
      vertex 150.34 149.589 45
      vertex 165.676 146.329 1
      vertex 150.34 149.589 1
    endloop
  endfacet
  facet normal -0.866032 0.499989 -5.15491e-18
    outer loop
      vertex 73.9841 105.505 1
      vertex 81.8237 119.084 45
      vertex 81.8237 119.084 1
    endloop
  endfacet
  facet normal -0.866032 0.499989 -5.15491e-18
    outer loop
      vertex 81.8237 119.084 45
      vertex 73.9841 105.505 1
      vertex 73.9841 105.505 45
    endloop
  endfacet
  facet normal -0.951061 -0.309004 9.02306e-18
    outer loop
      vertex 214.394 90.2815 1
      vertex 209.646 104.895 45
      vertex 209.646 104.895 1
    endloop
  endfacet
  facet normal -0.951061 -0.309004 9.02306e-18
    outer loop
      vertex 209.646 104.895 45
      vertex 214.394 90.2815 1
      vertex 214.394 90.2815 45
    endloop
  endfacet
  facet normal -0.994523 -0.104519 1.80967e-18
    outer loop
      vertex 216 75 1
      vertex 214.394 90.2815 45
      vertex 214.394 90.2815 1
    endloop
  endfacet
  facet normal -0.994523 -0.104519 1.80967e-18
    outer loop
      vertex 214.394 90.2815 45
      vertex 216 75 1
      vertex 216 75 45
    endloop
  endfacet
  facet normal -0.994523 0.104519 -6.95652e-19
    outer loop
      vertex 214.394 59.7185 1
      vertex 216 75 45
      vertex 216 75 1
    endloop
  endfacet
  facet normal -0.994523 0.104519 -6.95652e-19
    outer loop
      vertex 216 75 45
      vertex 214.394 59.7185 1
      vertex 214.394 59.7185 45
    endloop
  endfacet
  facet normal -0.951061 0.309002 -2.92461e-18
    outer loop
      vertex 209.646 45.1049 1
      vertex 214.394 59.7185 45
      vertex 214.394 59.7185 1
    endloop
  endfacet
  facet normal -0.951061 0.309002 -2.92461e-18
    outer loop
      vertex 214.394 59.7185 45
      vertex 209.646 45.1049 1
      vertex 209.646 45.1049 45
    endloop
  endfacet
  facet normal -0.406754 -0.913538 0
    outer loop
      vertex 165.213 144.903 1
      vertex 179.25 138.653 45
      vertex 165.213 144.903 45
    endloop
  endfacet
  facet normal -0.406754 -0.913538 -0
    outer loop
      vertex 179.25 138.653 45
      vertex 165.213 144.903 1
      vertex 179.25 138.653 1
    endloop
  endfacet
  facet normal -0.587792 0.809012 0
    outer loop
      vertex 191.681 20.3789 1
      vertex 179.25 11.3471 45
      vertex 191.681 20.3789 45
    endloop
  endfacet
  facet normal -0.587792 0.809012 0
    outer loop
      vertex 179.25 11.3471 45
      vertex 191.681 20.3789 1
      vertex 179.25 11.3471 1
    endloop
  endfacet
  facet normal 0.587797 -0.809008 0
    outer loop
      vertex 93.3189 129.621 1
      vertex 105.75 138.653 45
      vertex 93.3189 129.621 45
    endloop
  endfacet
  facet normal 0.587797 -0.809008 0
    outer loop
      vertex 105.75 138.653 45
      vertex 93.3189 129.621 1
      vertex 105.75 138.653 1
    endloop
  endfacet
  facet normal -0.866021 0.500007 5.99074e-18
    outer loop
      vertex 201.963 31.7978 1
      vertex 209.646 45.1049 45
      vertex 209.646 45.1049 1
    endloop
  endfacet
  facet normal -0.866021 0.500007 5.99074e-18
    outer loop
      vertex 209.646 45.1049 45
      vertex 201.963 31.7978 1
      vertex 201.963 31.7978 45
    endloop
  endfacet
  facet normal 0 -1 0
    outer loop
      vertex 134.817 148.097 1
      vertex 150.183 148.097 45
      vertex 134.817 148.097 45
    endloop
  endfacet
  facet normal 0 -1 -0
    outer loop
      vertex 150.183 148.097 45
      vertex 134.817 148.097 1
      vertex 150.183 148.097 1
    endloop
  endfacet
  facet normal 0.951057 -0.309016 4.82931e-18
    outer loop
      vertex 70.6062 90.2815 45
      vertex 75.3544 104.895 1
      vertex 75.3544 104.895 45
    endloop
  endfacet
  facet normal 0.951057 -0.309016 4.82931e-18
    outer loop
      vertex 75.3544 104.895 1
      vertex 70.6062 90.2815 45
      vertex 70.6062 90.2815 1
    endloop
  endfacet
  facet normal 0.866023 -0.500005 -6.45709e-18
    outer loop
      vertex 75.3544 104.895 45
      vertex 83.0373 118.202 1
      vertex 83.0373 118.202 45
    endloop
  endfacet
  facet normal 0.866023 -0.500005 -6.45709e-18
    outer loop
      vertex 83.0373 118.202 1
      vertex 75.3544 104.895 45
      vertex 75.3544 104.895 1
    endloop
  endfacet
  facet normal 0.207867 -0.978157 0
    outer loop
      vertex 119.787 144.903 1
      vertex 134.817 148.097 45
      vertex 119.787 144.903 45
    endloop
  endfacet
  facet normal 0.207867 -0.978157 0
    outer loop
      vertex 134.817 148.097 45
      vertex 119.787 144.903 1
      vertex 134.817 148.097 1
    endloop
  endfacet
  facet normal -0.207911 0.978148 0
    outer loop
      vertex 165.213 5.09735 1
      vertex 150.183 1.90264 45
      vertex 165.213 5.09735 45
    endloop
  endfacet
  facet normal -0.207911 0.978148 0
    outer loop
      vertex 150.183 1.90264 45
      vertex 165.213 5.09735 1
      vertex 150.183 1.90264 1
    endloop
  endfacet
  facet normal -0.743133 0.669144 -9.80084e-18
    outer loop
      vertex 191.681 20.3789 1
      vertex 201.963 31.7978 45
      vertex 201.963 31.7978 1
    endloop
  endfacet
  facet normal -0.743133 0.669144 -9.80084e-18
    outer loop
      vertex 201.963 31.7978 45
      vertex 191.681 20.3789 1
      vertex 191.681 20.3789 45
    endloop
  endfacet
  facet normal 0.406754 -0.913538 0
    outer loop
      vertex 105.75 138.653 1
      vertex 119.787 144.903 45
      vertex 105.75 138.653 45
    endloop
  endfacet
  facet normal 0.406754 -0.913538 0
    outer loop
      vertex 119.787 144.903 45
      vertex 105.75 138.653 1
      vertex 119.787 144.903 1
    endloop
  endfacet
  facet normal -0.406741 0.913544 0
    outer loop
      vertex 179.25 11.3471 1
      vertex 165.213 5.09735 45
      vertex 179.25 11.3471 45
    endloop
  endfacet
  facet normal -0.406741 0.913544 0
    outer loop
      vertex 165.213 5.09735 45
      vertex 179.25 11.3471 1
      vertex 165.213 5.09735 1
    endloop
  endfacet
  facet normal -0.5878 -0.809006 0
    outer loop
      vertex 179.25 138.653 1
      vertex 191.681 129.621 45
      vertex 179.25 138.653 45
    endloop
  endfacet
  facet normal -0.5878 -0.809006 -0
    outer loop
      vertex 191.681 129.621 45
      vertex 179.25 138.653 1
      vertex 191.681 129.621 1
    endloop
  endfacet
  facet normal -0.743136 -0.669141 -2.54512e-18
    outer loop
      vertex 201.963 118.202 1
      vertex 191.681 129.621 45
      vertex 191.681 129.621 1
    endloop
  endfacet
  facet normal -0.743136 -0.669141 -2.54512e-18
    outer loop
      vertex 191.681 129.621 45
      vertex 201.963 118.202 1
      vertex 201.963 118.202 45
    endloop
  endfacet
  facet normal -0.207867 -0.978157 0
    outer loop
      vertex 150.183 148.097 1
      vertex 165.213 144.903 45
      vertex 150.183 148.097 45
    endloop
  endfacet
  facet normal -0.207867 -0.978157 -0
    outer loop
      vertex 165.213 144.903 45
      vertex 150.183 148.097 1
      vertex 165.213 144.903 1
    endloop
  endfacet
  facet normal 0.994522 -0.104532 -4.5805e-20
    outer loop
      vertex 69 75 45
      vertex 70.6062 90.2815 1
      vertex 70.6062 90.2815 45
    endloop
  endfacet
  facet normal 0.994522 -0.104532 -4.5805e-20
    outer loop
      vertex 70.6062 90.2815 1
      vertex 69 75 45
      vertex 69 75 1
    endloop
  endfacet
  facet normal -0.86602 -0.50001 6.05738e-18
    outer loop
      vertex 209.646 104.895 1
      vertex 201.963 118.202 45
      vertex 201.963 118.202 1
    endloop
  endfacet
  facet normal -0.86602 -0.50001 6.05738e-18
    outer loop
      vertex 201.963 118.202 45
      vertex 209.646 104.895 1
      vertex 209.646 104.895 45
    endloop
  endfacet
  facet normal 0 1 -0
    outer loop
      vertex 150.183 1.90264 1
      vertex 142.5 1.90264 45
      vertex 150.183 1.90264 45
    endloop
  endfacet
  facet normal 0 1 0
    outer loop
      vertex 142.5 1.90264 45
      vertex 150.183 1.90264 1
      vertex 142.5 1.90264 1
    endloop
  endfacet
  facet normal 0.743149 -0.669127 8.21374e-18
    outer loop
      vertex 83.0373 118.202 45
      vertex 93.3189 129.621 1
      vertex 93.3189 129.621 45
    endloop
  endfacet
  facet normal 0.743149 -0.669127 8.21374e-18
    outer loop
      vertex 93.3189 129.621 1
      vertex 83.0373 118.202 45
      vertex 83.0373 118.202 1
    endloop
  endfacet
  facet normal -1 0 0
    outer loop
      vertex 142.5 1 1
      vertex 142.5 1.90264 45
      vertex 142.5 1.90264 1
    endloop
  endfacet
  facet normal -1 -0 0
    outer loop
      vertex 142.5 1.90264 45
      vertex 142.5 1 1
      vertex 142.5 1 45
    endloop
  endfacet
  facet normal 0 -1 0
    outer loop
      vertex 68 75 1
      vertex 69 75 45
      vertex 68 75 45
    endloop
  endfacet
  facet normal 0 -1 -0
    outer loop
      vertex 69 75 45
      vertex 68 75 1
      vertex 69 75 1
    endloop
  endfacet
  facet normal 1 -0 0
    outer loop
      vertex 6.5 1 45
      vertex 6.5 30 1
      vertex 6.5 30 45
    endloop
  endfacet
  facet normal 1 0 0
    outer loop
      vertex 6.5 30 1
      vertex 6.5 1 45
      vertex 6.5 1 1
    endloop
  endfacet
  facet normal 0 1 -0
    outer loop
      vertex 6.5 30 1
      vertex 1 30 45
      vertex 6.5 30 45
    endloop
  endfacet
  facet normal 0 1 0
    outer loop
      vertex 1 30 45
      vertex 6.5 30 1
      vertex 1 30 1
    endloop
  endfacet
  facet normal -1 0 0
    outer loop
      vertex 278.5 1 1
      vertex 278.5 30 45
      vertex 278.5 30 1
    endloop
  endfacet
  facet normal -1 -0 0
    outer loop
      vertex 278.5 30 45
      vertex 278.5 1 1
      vertex 278.5 1 45
    endloop
  endfacet
  facet normal 0 1 -0
    outer loop
      vertex 284 30 1
      vertex 278.5 30 45
      vertex 284 30 45
    endloop
  endfacet
  facet normal 0 1 0
    outer loop
      vertex 278.5 30 45
      vertex 284 30 1
      vertex 278.5 30 1
    endloop
  endfacet
  facet normal -1 0 0
    outer loop
      vertex 67 198 1
      vertex 67 259 45
      vertex 67 259 1
    endloop
  endfacet
  facet normal -1 -0 0
    outer loop
      vertex 67 259 45
      vertex 67 198 1
      vertex 67 198 45
    endloop
  endfacet
  facet normal -1 0 0
    outer loop
      vertex 67 1 1
      vertex 67 197 45
      vertex 67 197 1
    endloop
  endfacet
  facet normal -1 -0 0
    outer loop
      vertex 67 197 45
      vertex 67 1 1
      vertex 67 1 45
    endloop
  endfacet
  facet normal 0 1 -0
    outer loop
      vertex 67 198 1
      vertex 1 198 45
      vertex 67 198 45
    endloop
  endfacet
  facet normal 0 1 0
    outer loop
      vertex 1 198 45
      vertex 67 198 1
      vertex 1 198 1
    endloop
  endfacet
  facet normal 0 -1 0
    outer loop
      vertex 1 197 1
      vertex 67 197 45
      vertex 1 197 45
    endloop
  endfacet
  facet normal 0 -1 -0
    outer loop
      vertex 67 197 45
      vertex 1 197 1
      vertex 67 197 1
    endloop
  endfacet
  facet normal 0 1 -0
    outer loop
      vertex 284 181 1
      vertex 176 181 45
      vertex 284 181 45
    endloop
  endfacet
  facet normal 0 1 0
    outer loop
      vertex 176 181 45
      vertex 284 181 1
      vertex 176 181 1
    endloop
  endfacet
  facet normal 0 1 -0
    outer loop
      vertex 175 181 1
      vertex 68 181 45
      vertex 175 181 45
    endloop
  endfacet
  facet normal 0 1 0
    outer loop
      vertex 68 181 45
      vertex 175 181 1
      vertex 68 181 1
    endloop
  endfacet
  facet normal 0 -1 0
    outer loop
      vertex 176 180 1
      vertex 284 180 45
      vertex 176 180 45
    endloop
  endfacet
  facet normal 0 -1 -0
    outer loop
      vertex 284 180 45
      vertex 176 180 1
      vertex 284 180 1
    endloop
  endfacet
  facet normal 0 -1 0
    outer loop
      vertex 68 180 1
      vertex 175 180 45
      vertex 68 180 45
    endloop
  endfacet
  facet normal 0 -1 -0
    outer loop
      vertex 175 180 45
      vertex 68 180 1
      vertex 175 180 1
    endloop
  endfacet
  facet normal 0 1 -0
    outer loop
      vertex 284 91 1
      vertex 215.729 91 45
      vertex 284 91 45
    endloop
  endfacet
  facet normal 0 1 0
    outer loop
      vertex 215.729 91 45
      vertex 284 91 1
      vertex 215.729 91 1
    endloop
  endfacet
  facet normal 0 -1 0
    outer loop
      vertex 215.923 90 1
      vertex 284 90 45
      vertex 215.923 90 45
    endloop
  endfacet
  facet normal 0 -1 -0
    outer loop
      vertex 284 90 45
      vertex 215.923 90 1
      vertex 284 90 1
    endloop
  endfacet
  facet normal 1 -0 0
    outer loop
      vertex 176 181 45
      vertex 176 259 1
      vertex 176 259 45
    endloop
  endfacet
  facet normal 1 0 0
    outer loop
      vertex 176 259 1
      vertex 176 181 45
      vertex 176 181 1
    endloop
  endfacet
  facet normal 1 -0 0
    outer loop
      vertex 176 141.733 45
      vertex 176 180 1
      vertex 176 180 45
    endloop
  endfacet
  facet normal 1 0 0
    outer loop
      vertex 176 180 1
      vertex 176 141.733 45
      vertex 176 141.733 1
    endloop
  endfacet
  facet normal -1 0 0
    outer loop
      vertex 175 181 1
      vertex 175 259 45
      vertex 175 259 1
    endloop
  endfacet
  facet normal -1 -0 0
    outer loop
      vertex 175 259 45
      vertex 175 181 1
      vertex 175 181 45
    endloop
  endfacet
  facet normal -1 0 0
    outer loop
      vertex 175 142.178 1
      vertex 175 180 45
      vertex 175 180 1
    endloop
  endfacet
  facet normal -1 -0 0
    outer loop
      vertex 175 180 45
      vertex 175 142.178 1
      vertex 175 142.178 45
    endloop
  endfacet
  facet normal 1 -0 0
    outer loop
      vertex 68 181 45
      vertex 68 259 1
      vertex 68 259 45
    endloop
  endfacet
  facet normal 1 0 0
    outer loop
      vertex 68 259 1
      vertex 68 181 45
      vertex 68 181 1
    endloop
  endfacet
  facet normal 1 -0 0
    outer loop
      vertex 68 1 45
      vertex 68 75 1
      vertex 68 75 45
    endloop
  endfacet
  facet normal 1 0 0
    outer loop
      vertex 68 75 1
      vertex 68 1 45
      vertex 68 1 1
    endloop
  endfacet
  facet normal 1 -0 0
    outer loop
      vertex 68 79.7572 45
      vertex 68 180 1
      vertex 68 180 45
    endloop
  endfacet
  facet normal 1 0 0
    outer loop
      vertex 68 180 1
      vertex 68 79.7572 45
      vertex 68 79.7572 1
    endloop
  endfacet
  facet normal 1 -0 0
    outer loop
      vertex 285 263 45
      vertex 285 430 0
      vertex 285 430 45
    endloop
  endfacet
  facet normal 1 0 0
    outer loop
      vertex 285 430 0
      vertex 285 263 45
      vertex 285 263 0
    endloop
  endfacet
  facet normal 0 0 1
    outer loop
      vertex 285 430 45
      vertex 284 429 45
      vertex 285 263 45
    endloop
  endfacet
  facet normal 0 0 1
    outer loop
      vertex 285 430 45
      vertex 141 429 45
      vertex 284 429 45
    endloop
  endfacet
  facet normal 0 0 1
    outer loop
      vertex 141 429 45
      vertex 140 429 45
      vertex 141 264 45
    endloop
  endfacet
  facet normal 0 0 1
    outer loop
      vertex 285 430 45
      vertex 140 429 45
      vertex 141 429 45
    endloop
  endfacet
  facet normal 0 0 1
    outer loop
      vertex 285 430 45
      vertex 71 429 45
      vertex 140 429 45
    endloop
  endfacet
  facet normal 0 0 1
    outer loop
      vertex 71 429 45
      vertex 70 429 45
      vertex 71 264 45
    endloop
  endfacet
  facet normal 0 0 1
    outer loop
      vertex 285 430 45
      vertex 70 429 45
      vertex 71 429 45
    endloop
  endfacet
  facet normal -0 0 1
    outer loop
      vertex 0 430 45
      vertex 70 429 45
      vertex 285 430 45
    endloop
  endfacet
  facet normal 0 0 1
    outer loop
      vertex 1 429 45
      vertex 0 430 45
      vertex 1 264 45
    endloop
  endfacet
  facet normal 0 0 1
    outer loop
      vertex 70 429 45
      vertex 0 430 45
      vertex 1 429 45
    endloop
  endfacet
  facet normal -0 0 1
    outer loop
      vertex 284 264 45
      vertex 285 263 45
      vertex 284 429 45
    endloop
  endfacet
  facet normal -0 0 1
    outer loop
      vertex 141 264 45
      vertex 285 263 45
      vertex 284 264 45
    endloop
  endfacet
  facet normal 0 0 1
    outer loop
      vertex 140 264 45
      vertex 141 264 45
      vertex 140 429 45
    endloop
  endfacet
  facet normal -0 0 1
    outer loop
      vertex 140 264 45
      vertex 285 263 45
      vertex 141 264 45
    endloop
  endfacet
  facet normal -0 0 1
    outer loop
      vertex 71 264 45
      vertex 285 263 45
      vertex 140 264 45
    endloop
  endfacet
  facet normal 0 0 1
    outer loop
      vertex 70 264 45
      vertex 71 264 45
      vertex 70 429 45
    endloop
  endfacet
  facet normal -0 0 1
    outer loop
      vertex 70 264 45
      vertex 285 263 45
      vertex 71 264 45
    endloop
  endfacet
  facet normal 0 0 1
    outer loop
      vertex 0 263 45
      vertex 70 264 45
      vertex 1 264 45
    endloop
  endfacet
  facet normal 0 0 1
    outer loop
      vertex 70 264 45
      vertex 0 263 45
      vertex 285 263 45
    endloop
  endfacet
  facet normal 0 0 1
    outer loop
      vertex 0 263 45
      vertex 1 264 45
      vertex 0 430 45
    endloop
  endfacet
  facet normal 0 0 -1
    outer loop
      vertex 0 263 0
      vertex 285 430 0
      vertex 285 263 0
    endloop
  endfacet
  facet normal -0 0 -1
    outer loop
      vertex 285 430 0
      vertex 0 263 0
      vertex 0 430 0
    endloop
  endfacet
  facet normal -1 0 0
    outer loop
      vertex 0 263 0
      vertex 0 430 45
      vertex 0 430 0
    endloop
  endfacet
  facet normal -1 -0 0
    outer loop
      vertex 0 430 45
      vertex 0 263 0
      vertex 0 263 45
    endloop
  endfacet
  facet normal 0 1 -0
    outer loop
      vertex 285 430 0
      vertex 0 430 45
      vertex 285 430 45
    endloop
  endfacet
  facet normal 0 1 0
    outer loop
      vertex 0 430 45
      vertex 285 430 0
      vertex 0 430 0
    endloop
  endfacet
  facet normal 0 -1 0
    outer loop
      vertex 0 263 0
      vertex 285 263 45
      vertex 0 263 45
    endloop
  endfacet
  facet normal 0 -1 -0
    outer loop
      vertex 285 263 45
      vertex 0 263 0
      vertex 285 263 0
    endloop
  endfacet
  facet normal -1 0 0
    outer loop
      vertex 284 264 1
      vertex 284 429 45
      vertex 284 429 1
    endloop
  endfacet
  facet normal -1 -0 0
    outer loop
      vertex 284 429 45
      vertex 284 264 1
      vertex 284 264 45
    endloop
  endfacet
  facet normal -0 0 1
    outer loop
      vertex 141 429 1
      vertex 284 264 1
      vertex 284 429 1
    endloop
  endfacet
  facet normal 0 0 1
    outer loop
      vertex 284 264 1
      vertex 141 429 1
      vertex 141 264 1
    endloop
  endfacet
  facet normal -0 0 1
    outer loop
      vertex 1 429 1
      vertex 70 264 1
      vertex 70 429 1
    endloop
  endfacet
  facet normal 0 0 1
    outer loop
      vertex 70 264 1
      vertex 1 429 1
      vertex 1 264 1
    endloop
  endfacet
  facet normal -0 0 1
    outer loop
      vertex 71 429 1
      vertex 140 264 1
      vertex 140 429 1
    endloop
  endfacet
  facet normal 0 0 1
    outer loop
      vertex 140 264 1
      vertex 71 429 1
      vertex 71 264 1
    endloop
  endfacet
  facet normal 1 -0 0
    outer loop
      vertex 1 264 45
      vertex 1 429 1
      vertex 1 429 45
    endloop
  endfacet
  facet normal 1 0 0
    outer loop
      vertex 1 429 1
      vertex 1 264 45
      vertex 1 264 1
    endloop
  endfacet
  facet normal 0 -1 0
    outer loop
      vertex 141 429 1
      vertex 284 429 45
      vertex 141 429 45
    endloop
  endfacet
  facet normal 0 -1 -0
    outer loop
      vertex 284 429 45
      vertex 141 429 1
      vertex 284 429 1
    endloop
  endfacet
  facet normal 0 -1 0
    outer loop
      vertex 1 429 1
      vertex 70 429 45
      vertex 1 429 45
    endloop
  endfacet
  facet normal 0 -1 -0
    outer loop
      vertex 70 429 45
      vertex 1 429 1
      vertex 70 429 1
    endloop
  endfacet
  facet normal 0 -1 0
    outer loop
      vertex 71 429 1
      vertex 140 429 45
      vertex 71 429 45
    endloop
  endfacet
  facet normal 0 -1 -0
    outer loop
      vertex 140 429 45
      vertex 71 429 1
      vertex 140 429 1
    endloop
  endfacet
  facet normal 0 1 -0
    outer loop
      vertex 284 264 1
      vertex 141 264 45
      vertex 284 264 45
    endloop
  endfacet
  facet normal 0 1 0
    outer loop
      vertex 141 264 45
      vertex 284 264 1
      vertex 141 264 1
    endloop
  endfacet
  facet normal 0 1 -0
    outer loop
      vertex 70 264 1
      vertex 1 264 45
      vertex 70 264 45
    endloop
  endfacet
  facet normal 0 1 0
    outer loop
      vertex 1 264 45
      vertex 70 264 1
      vertex 1 264 1
    endloop
  endfacet
  facet normal 0 1 -0
    outer loop
      vertex 140 264 1
      vertex 71 264 45
      vertex 140 264 45
    endloop
  endfacet
  facet normal 0 1 0
    outer loop
      vertex 71 264 45
      vertex 140 264 1
      vertex 71 264 1
    endloop
  endfacet
  facet normal 1 -0 0
    outer loop
      vertex 71 264 45
      vertex 71 429 1
      vertex 71 429 45
    endloop
  endfacet
  facet normal 1 0 0
    outer loop
      vertex 71 429 1
      vertex 71 264 45
      vertex 71 264 1
    endloop
  endfacet
  facet normal -1 0 0
    outer loop
      vertex 70 264 1
      vertex 70 429 45
      vertex 70 429 1
    endloop
  endfacet
  facet normal -1 -0 0
    outer loop
      vertex 70 429 45
      vertex 70 264 1
      vertex 70 264 45
    endloop
  endfacet
  facet normal 1 -0 0
    outer loop
      vertex 141 264 45
      vertex 141 429 1
      vertex 141 429 45
    endloop
  endfacet
  facet normal 1 0 0
    outer loop
      vertex 141 429 1
      vertex 141 264 45
      vertex 141 264 1
    endloop
  endfacet
  facet normal -1 0 0
    outer loop
      vertex 140 264 1
      vertex 140 429 45
      vertex 140 429 1
    endloop
  endfacet
  facet normal -1 -0 0
    outer loop
      vertex 140 429 45
      vertex 140 264 1
      vertex 140 264 45
    endloop
  endfacet
endsolid OpenSCAD_Model
